<?xml version="1.0" encoding="UTF-8" standalone="no"?>
<!-- Created with Inkscape (http://www.inkscape.org/) -->

<svg
   width="1920"
   height="1080"
   viewBox="0 0 508 285.75"
   version="1.1"
   id="svg5"
   xml:space="preserve"
   xmlns:xlink="http://www.w3.org/1999/xlink"
   xmlns="http://www.w3.org/2000/svg"
   xmlns:svg="http://www.w3.org/2000/svg"><defs
     id="defs2"><linearGradient
       id="linearGradient487"><stop
         style="stop-color:#1a2c3e;stop-opacity:1;"
         offset="0"
         id="stop483" /><stop
         style="stop-color:#0f141a;stop-opacity:1;"
         offset="1"
         id="stop485" /></linearGradient><linearGradient
       xlink:href="#linearGradient487"
       id="linearGradient489"
       x1="254"
       y1="21.3125"
       x2="254"
       y2="244.75"
       gradientUnits="userSpaceOnUse" /><linearGradient
       xlink:href="#linearGradient487"
       id="linearGradient2"
       gradientUnits="userSpaceOnUse"
       x1="254"
       y1="21.3125"
       x2="254"
       y2="244.75" /></defs><g
     id="layer1"
     style="display:none;fill:url(#linearGradient489);fill-opacity:1"><rect
       style="fill:url(#linearGradient2);fill-opacity:1;stroke-width:2;stroke-linecap:round;stroke-linejoin:round"
       id="rect416"
       width="544.47217"
       height="312.09927"
       x="-22.848387"
       y="-13.611805" /></g><g
     id="layer7"
     transform="translate(-439.78969,170.81632)"
     style="display:inline;opacity:0.4"><circle
       style="display:inline;opacity:1;fill:#2a4c6d;fill-opacity:1;stroke:none;stroke-width:7.92745;stroke-linecap:round;stroke-linejoin:round;stroke-dasharray:none;stroke-opacity:1"
       id="path35186"
       cx="743.7298"
       cy="-6.8832045"
       r="113.60844" /><path
       id="circle5740"
       style="display:inline;opacity:1;fill:#33608c;fill-opacity:1;stroke:none;stroke-width:7.92745;stroke-linecap:round;stroke-linejoin:round;stroke-dasharray:none;stroke-opacity:1"
       d="m 743.7301,-120.49193 c -37.24626,0.0127 -72.12092,18.28062 -93.33764,48.893297 10.30049,-3.39422 5.29131,-3.62743 12.07516,-10.35957 0.0162,-0.055 1.31277,0.24388 1.43628,0.25973 1.71024,0.21842 4.37435,0.64595 4.43666,2.81357 0.0815,2.83832 -5.76489,7.02438 -4.11875,9.827 0.12034,0.20483 2.57169,-2.78377 3.19701,-4.29327 -0.0143,0.0856 -0.0368,0.19059 -0.0442,0.2458 -0.16784,1.25049 -0.42447,2.61479 0.10163,3.82051 1.32888,3.04595 4.74343,3.7898 5.70824,0.27039 1.23776,-4.51526 1.37249,-8.35371 3.59765,-12.7602 2.15494,-4.2673 6.21799,-4.46883 9.02571,-7.33707 0.86043,-0.87893 1.31615,-2.25953 2.33917,-3.06346 1.8058,-1.41903 6.11231,-2.36731 8.33911,-2.68329 2.71091,-0.38465 3.16109,0.89248 5.65663,1.25521 1.21772,0.177 2.23916,-0.55223 3.33056,-0.55223 0.65839,0 -2.45352,-1.14837 -2.79636,-2.31623 -0.0165,-0.0564 2.52554,0.12161 0.39409,-2.32606 -0.45579,-0.52339 -4.80535,0.90588 -4.80535,-0.88816 0,-3.028707 13.4515,1.24756 15.31813,-0.345747 1.29066,-1.10168 -8.99525,-1.54443 -6.61033,-5.59518 0.16938,-0.2877 3.82993,2.26857 4.11876,2.39161 0.18798,0.0801 -0.23261,-0.36991 -0.21548,-0.57352 2e-4,-0.003 1.41334,-0.4137 1.55016,-0.46539 1.17183,-0.44213 1.89982,-1.89219 2.92418,-2.26215 1.66079,-0.59986 5.11494,0.12509 6.28014,-0.72511 1.34154,-0.97879 1.3096,-1.6088 3.24125,-1.8828 1.48393,-0.21049 3.51534,1.2606 4.79223,0.8652 2.67118,-0.82714 7.49992,-7.4779 10.62831,-5.70334 0.39211,0.22242 -2.36692,1.80661 -2.594,2.28348 -0.80007,1.68011 -1.38827,3.69271 1.3478,2.33752 2.2798,-1.1292 12.82542,-5.87834 14.44145,-4.27442 0.73026,0.72479 -4.83374,1.99169 -5.14865,2.18596 -1.2032,0.7423 -3.85289,5.24445 -1.97049,6.0286 5.22373,2.17604 5.4389,-3.46216 8.79711,-5.53045 1.1719,-0.72172 2.42741,-0.84258 3.78775,-0.87667 0.55508,-0.0143 1.35851,-0.77096 1.64028,-0.29251 0.18436,0.31309 -1.62838,4.71735 0.45802,3.47395 2.71455,-1.61778 2.04086,-3.66073 6.4571,-2.60792 0.37091,0.0885 1.85658,0.0858 2.03439,0.2376 1.58973,1.35749 -7.90508,1.09637 -5.68285,4.09172 4.21416,5.68046 4.55338,-2.67971 8.46693,-1.5264 3.95298,1.16495 1.41278,5.17164 3.38135,5.57388 1.25227,0.2559 6.29475,-6.52963 7.56402,-0.69315 1.23537,5.680377 -22.92074,8.439067 -8.09822,15.422167 6.24229,2.94085 6.64407,-1.98267 8.33993,-2.53254 0.85123,-0.2761 2.08613,0.36048 2.87255,-0.18352 0.82862,-0.5732 1.66121,-1.98031 2.73328,-1.98031 0.52503,0 -1.91962,-0.38339 -1.4494,-0.61695 1.04273,-0.51798 5.71933,-1.24177 7.25923,-1.64522 1.07877,-0.28264 3.51429,2.39005 4.65214,2.49977 0.0197,0.002 3.40002,-0.68359 3.45837,-0.58418 0.53142,0.90542 1.28177,1.14914 2.26216,1.41744 3.04228,0.83252 7.09946,-0.25153 9.99251,1.28797 2.49029,1.32516 3.81279,4.06159 5.63123,5.99583 0.31521,0.33527 4.04743,2.40505 4.32194,2.5219 0.33988,0.14475 1.62095,-0.39585 1.64029,-0.37936 0.84202,0.71873 0.55424,3.03273 1.37237,4.10237 0.37055,0.48448 3.12361,2.50281 3.08968,3.05117 -0.13667,2.21281 -3.36849,3.20868 -2.00899,5.37888 1.1273,1.79944 7.16842,3.19422 9.25511,5.30351 1.98255,2.00392 -0.52348,3.66686 0.53339,5.70332 0.74347,1.43251 -4.31525,4.66084 -4.80534,3.40922 -0.47626,-1.21617 3.39098,-5.26444 1.0938,-7.81391 -1.41086,-1.56577 -3.14402,-3.05388 -5.19945,-3.55014 -0.19759,-0.0477 -0.77463,-0.24753 -0.712,-0.16223 0.005,0.005 -3.10425,1.17804 -3.44526,1.38548 -0.52886,0.32179 -0.30578,2.38398 -1.94509,3.18144 -2.02224,0.98376 -3.23389,-1.17715 -4.79224,-0.32446 -2.14383,1.17311 -0.93243,3.50635 -1.85578,4.78405 -0.0323,0.0449 -15.89572,3.16859 -16.7929,3.12737 -1.40699,-0.0647 -3.85936,-0.15696 -4.97086,-1.19048 -0.41525,-0.38618 -2.61858,-3.79421 -3.20357,-3.72302 -1.40731,0.17118 -1.457,0.81893 -1.70337,1.65587 -0.22619,0.76842 -1.65169,0.19884 -2.31377,0.64972 -1.40301,0.95551 -3.28559,2.88664 -4.95775,2.85699 -1.9222,-0.0341 -5.35604,-3.9334 -5.23713,0.0647 0.10448,3.51317 2.95406,4.21638 3.94096,7.26169 0.41891,1.29262 -2.88255,2.88654 -2.91188,4.14579 -0.055,2.35187 3.69036,2.83279 4.84385,4.25312 0.55139,0.679 -0.67356,2.61879 -0.2925,2.81357 2.65259,1.35577 3.00871,4.29281 5.30104,5.63861 1.97058,1.1569 5.10214,-6.96936 6.77583,-3.72302 0.65622,1.27276 0.21476,3.07422 -0.27939,4.33997 -0.0962,0.24654 1.07802,1.28873 0.83899,1.54771 -0.44307,0.48001 -1.3351,0.27725 -1.38631,1.14705 -0.10987,1.8672 3.88727,13.39073 4.83075,14.49143 0.91261,1.06462 3.04849,1.41596 4.22036,2.03438 5.70714,3.0117696 12.03746,1.9341896 18.23,2.3162396 2.79547,0.17247 4.64861,1.230687 7.57631,0.843904 1.80701,-0.238724 4.12092,-1.498454 5.63205,-2.521064 1.46626,-0.9922196 3.59231,-1.6631696 4.47434,-3.3231896 0.36274,-0.68262 1.21576,-3.11418 1.37319,-3.11672 1.16555,-0.0184 1.95588,-0.93796 2.40883,-1.78859 -0.0206,1.27588 0.19501,2.99004 0.22203,3.24945 0.20082,1.92341 -2.68693,4.7395 -3.99094,5.9204496 -2.41566,2.187628 2.07376,2.168957 0.52109,4.653776 -1.15676,1.851202 -2.69911,4.90906698 -4.18266,6.493161 -2.33264,2.490649 -4.95983,4.149983 -6.47022,7.402613 -1.47935,3.1859594 0.51406,7.7996014 0.127,11.1149784 -0.44542,3.815343 -3.28283,7.046971 -3.59766,10.80036 -0.0306,0.364395 4.13278,5.677663 4.54317,5.917992 3.93189,2.302556 12.75066,0.803197 18.01943,-1.854954 h 8.2e-4 c 0.001,-0.0025 0.002,-0.0049 0.003,-0.0075 0.27973,-0.692185 0.54696,-1.388252 0.81277,-2.085184 0.75237,-1.972244 1.4496,-3.965073 2.09092,-5.976166 0.19433,-0.60956 0.38386,-1.220356 0.5678,-1.832833 0.64206,-2.141653 1.22075,-4.30179 1.73533,-6.477594 0.1186,-0.500493 0.23807,-1.000643 0.34984,-1.502643 0.51548,-2.322798 0.95788,-4.661215 1.32651,-7.011794 0.0587,-0.372255 0.12113,-0.7438854 0.17614,-1.1167424 0.36884,-2.512737 0.65329,-5.037134 0.85292,-7.568936 0.0174,-0.218946 0.0396,-0.437201 0.0557,-0.65628 0.20256,-2.744747 0.30532,-5.495948 0.30806,-8.248158 3.5e-4,-0.975116 -0.0127,-1.950196 -0.0368,-2.924996 v -0.007 c -0.0239,-0.8909796 -0.0584,-1.7816496 -0.10322,-2.6718296 -0.0127,-0.25773 -0.0298,-0.51511 -0.0442,-0.77262 -0.036,-0.64624 -0.0775,-1.29217 -0.12462,-1.93771 -0.0208,-0.28423 -0.0425,-0.56817 -0.0655,-0.8521 -0.0542,-0.66663 -0.11432,-1.33276 -0.18024,-1.99833 -0.0228,-0.23045 -0.043,-0.4613 -0.0672,-0.69151 -0.0924,-0.8825 -0.19504,-1.76388 -0.30806,-2.64397 -0.0201,-0.1562 -0.0431,-0.31175 -0.0639,-0.46783 -0.097,-0.7302 -0.20103,-1.45943 -0.31217,-2.18761 -0.0422,-0.27608 -0.0869,-0.55184 -0.13112,-0.82752 -0.10052,-0.62574 -0.20616,-1.25064 -0.31708,-1.87461 -0.0485,-0.27327 -0.0961,-0.54651 -0.14666,-0.81933 -0.13762,-0.74346 -0.28263,-1.48554 -0.43506,-2.22611 -0.0274,-0.13339 -0.0523,-0.26738 -0.0802,-0.40065 -0.18363,-0.87402 -0.37755,-1.74584 -0.58173,-2.61529 -0.051,-0.21804 -0.10575,-0.4353 -0.15807,-0.653 -0.153,-0.63579 -0.31133,-1.27025 -0.47521,-1.9033 -0.0793,-0.3063 -0.15985,-0.61207 -0.24171,-0.91764 -0.16343,-0.60934 -0.33195,-1.2173 -0.50552,-1.82383 -0.0696,-0.24328 -0.13698,-0.48724 -0.20811,-0.73002 -0.24719,-0.8455 -0.5042,-1.68809 -0.77099,-2.52761 -0.0484,-0.15173 -0.1002,-0.30239 -0.1492,-0.45391 -0.2236,-0.69234 -0.45383,-1.38252 -0.69068,-2.07043 -0.0969,-0.28118 -0.19672,-0.56106 -0.29578,-0.84146 -0.20216,-0.57273 -0.40891,-1.1438 -0.62023,-1.71322 -0.10432,-0.28093 -0.20805,-0.56215 -0.31462,-0.84226 -0.26492,-0.69552 -0.53669,-1.38843 -0.81523,-2.07863 -0.0523,-0.12969 -0.10211,-0.26046 -0.1549,-0.39 -0.33094,-0.81149 -0.67125,-1.61912 -1.02089,-2.42274 -0.10591,-0.24366 -0.216,-0.48545 -0.32363,-0.72839 -0.2581,-0.58339 -0.52112,-1.16458 -0.789,-1.74352 -0.12446,-0.26868 -0.25029,-0.53684 -0.37691,-0.80458 -0.27053,-0.57173 -0.54582,-1.14117 -0.82586,-1.7083 -0.11987,-0.24303 -0.238,-0.48699 -0.35969,-0.7292 -0.3909,-0.77938 -0.79076,-1.55425 -1.1995,-2.32443 -0.0729,-0.1373 -0.14936,-0.27267 -0.22286,-0.40966 -0.34768,-0.64796 -0.70164,-1.29253 -1.06184,-1.9336 -0.14285,-0.25417 -0.28854,-0.5072 -0.43342,-0.76034 -0.30221,-0.52792 -0.60864,-1.0534 -0.91929,-1.5764 -0.15807,-0.2661 -0.31575,-0.53228 -0.47603,-0.7972 -0.3719,-0.6145 -0.74963,-1.22547 -1.13313,-1.83283 -0.0851,-0.13492 -0.16738,-0.27172 -0.25317,-0.40638 -0.4782,-0.74963 -0.96519,-1.49364 -1.46086,-2.23185 -0.13572,-0.20246 -0.27497,-0.40298 -0.41212,-0.60466 -0.3564,-0.52465 -0.71718,-1.04629 -1.08232,-1.56491 -0.19295,-0.27377 -0.38789,-0.5463 -0.58337,-0.81851 -0.34235,-0.47625 -0.68838,-0.94982 -1.03808,-1.42072 -0.18156,-0.24473 -0.36122,-0.49071 -0.54486,-0.73411 -0.52882,-0.70265 -1.0658,-1.39912 -1.61079,-2.08929 -0.56794,-0.71646 -1.14452,-1.42605 -1.7296,-2.1286 -0.15984,-0.192 -0.32225,-0.38183 -0.4834,-0.57271 l -0.008,-0.008 c -0.43271,-0.51459 -0.86998,-1.02532 -1.31174,-1.53214 -0.006,-0.008 -0.0143,-0.0159 -0.0204,-0.023 -0.21879,-0.24978 -0.44039,-0.4968 -0.6612,-0.74477 l -8.1e-4,-8.1e-4 c -0.39365,-0.44335 -0.79077,-0.88362 -1.19131,-1.32076 -0.25648,-0.27916 -0.51586,-0.55584 -0.77508,-0.83243 -0.1661,-0.17767 -0.335,-0.3527 -0.50226,-0.52929 -0.21697,-0.23059 -0.43491,-0.46028 -0.65381,-0.68905 -0.008,-0.008 -0.0143,-0.0143 -0.0222,-0.022 -0.27723,-0.28696 -0.55638,-0.57213 -0.83652,-0.8562 -0.36778,-0.37289 -0.73811,-0.74323 -1.11101,-1.111 -0.30061,-0.29654 -0.60233,-0.59169 -0.90619,-0.88488 l -0.003,-0.003 c -0.38736,-0.3731 -0.77736,-0.74346 -1.17,-1.11102 -0.28713,-0.2693 -0.57447,-0.53824 -0.86439,-0.80457 -0.44332,-0.40638 -0.88987,-0.80922 -1.3396,-1.20852 -0.23917,-0.21285 -0.4776,-0.42656 -0.71854,-0.63743 l -0.005,-0.005 c -0.52483,-0.45794 -1.05388,-0.91106 -1.58705,-1.35926 -0.18152,-0.153 -0.36154,-0.30773 -0.54403,-0.45965 -0.66827,-0.55586 -1.34289,-1.10403 -2.02374,-1.6444 -0.0365,-0.029 -0.0718,-0.0591 -0.10813,-0.0885 l -0.023,-0.0181 c -0.72555,-0.57317 -1.4581,-1.13745 -2.19743,-1.69274 -0.0991,-0.0747 -0.19971,-0.14761 -0.29905,-0.22203 -19.63247,-14.666407 -43.48101,-22.591597 -67.98688,-22.592927 z" /></g><g
     id="layer9"
     transform="matrix(3.3976555,0,0,3.3976555,-277.9616,563.0799)"
     style="opacity:1"><path
       style="fill:#1a2a3b;fill-opacity:1;stroke:none;stroke-width:0.264583px;stroke-linecap:butt;stroke-linejoin:miter;stroke-opacity:1"
       d="m 70.411614,-106.03707 c 2.895463,-1.48418 5.49995,-3.7836 8.346641,-5.52904 6.529345,-4.00344 13.894393,-6.71912 20.646075,-10.29357 4.02759,-2.13228 10.0625,-6.87605 14.66476,-7.24919 0.94358,-0.0765 1.92937,0.87648 2.80629,1.16724 3.97474,1.31791 8.21412,2.16691 12.10705,3.75429 3.0222,1.23233 5.81913,2.41914 8.97203,3.35155 15.02569,4.44357 29.625,10.39516 44.09848,16.40283 3.25121,1.34951 6.20743,3.29778 9.42103,4.737231 11.23036,5.030356 22.74797,9.192977 33.65116,14.942063 3.07005,1.618792 16.00395,5.52223 17.14227,9.030761 0.51199,1.578057 -0.12596,3.986596 -0.21646,5.604129 -0.0957,1.711317 0.3094,3.742502 -0.12026,5.412999 -2.50989,9.758206 -12.36083,10.097561 -21.04702,10.450579 -6.8589,0.278751 -13.61089,-1.183185 -20.44565,-1.508541 -9.99603,-0.475842 -20.06568,0.02852 -30.04312,-0.668948 -11.79912,-0.824812 -23.49153,-2.332702 -35.32688,-2.832786 -10.77158,-0.455139 -21.46438,-0.121674 -32.22396,-1.058026 -4.848626,-0.421952 -12.202323,0.187137 -16.444758,-2.689434 -5.417928,-3.673613 -7.902688,-19.133142 -9.284732,-25.576932 -0.986213,-4.598217 -3.801657,-8.355806 -5.644589,-12.587105 -0.685403,-1.57366 -0.412107,-3.39679 -1.058357,-4.8601 z"
       id="path7402" /><path
       id="path7408"
       style="fill:#1f364e;fill-opacity:1;stroke:none;stroke-width:0.264583px;stroke-linecap:butt;stroke-linejoin:miter;stroke-opacity:1"
       d="m 114.06901,-129.10892 c -0.24605,0.02 -0.49818,0.0585 -0.7519,0.10232 0.0281,4.66899 1.73418,9.68036 -0.75551,13.97951 -5.2973,9.14729 -12.5533,17.203386 -19.812223,24.805724 -2.842623,2.977107 -8.85109,8.596334 -12.986287,13.699939 1.513974,5.762764 3.619459,11.463183 6.636287,13.508736 4.242431,2.876568 11.595854,2.26729 16.444473,2.689241 10.75957,0.936351 21.45282,0.602678 32.22439,1.057817 11.83534,0.500083 23.52742,2.008091 35.32653,2.832902 9.97743,0.697467 20.0471,0.193368 30.04312,0.66921 6.83476,0.325355 13.58689,1.787185 20.44579,1.508435 8.68618,-0.353018 18.53688,-0.692329 21.04677,-10.450525 0.42966,-1.670495 0.0247,-3.701791 0.12041,-5.413106 0.0905,-1.617532 0.72851,-4.026254 0.21652,-5.60431 -1.13832,-3.508527 -14.07206,-7.411666 -17.1421,-9.030456 -10.90318,-5.74908 -22.42083,-9.91189 -33.65118,-14.94224 -3.2136,-1.439447 -6.16992,-3.387667 -9.42113,-4.737177 -14.47347,-6.00767 -29.07292,-11.95957 -44.0986,-16.40314 -3.1529,-0.9324 -5.94987,-2.11888 -8.97206,-3.35121 -3.89293,-1.58738 -8.13202,-2.43639 -12.10676,-3.75429 -0.87692,-0.29076 -1.86296,-1.24388 -2.80654,-1.16738 z" /></g><g
     id="layer3"
     style="display:inline"><g
       id="layer6"><circle
         style="opacity:0.5;fill:#213a53;fill-opacity:1;stroke:none;stroke-width:7.92745;stroke-linecap:round;stroke-linejoin:round;stroke-dasharray:none;stroke-opacity:1"
         id="path30241"
         cx="421.70016"
         cy="223.64693"
         r="10.901072" /><path
         id="circle31349"
         style="opacity:0.5;fill:#2a4c6d;fill-opacity:1;stroke:none;stroke-width:7.92745;stroke-linecap:round;stroke-linejoin:round;stroke-dasharray:none;stroke-opacity:1"
         d="m 427.56156,214.4557 c -0.64382,0.23015 -1.29164,0.44342 -1.8017,0.57024 -1.90886,0.47463 -1.49996,0.91286 -5.61566,1.76565 -2.90621,0.60217 -6.08531,0.97663 -7.72215,1.14706 a 10.901071,10.901071 0 0 0 -1.41334,3.62142 c 1.13496,-0.35474 3.0747,-0.97847 3.94343,-1.36171 1.26067,-0.55621 3.63301,-1.48271 6.3768,-1.96475 2.06741,-0.36319 6.04541,-1.7978 7.88356,-2.48419 a 10.901071,10.901071 0 0 0 -1.65094,-1.29372 z m 2.48011,2.17366 c -1.21606,1.3697 -8.2644,3.54345 -12.06787,4.46861 -3.88029,0.94386 -6.86923,1.20605 -6.86923,1.20605 -0.0799,-0.002 -0.15125,0.006 -0.21794,0.0246 a 10.901071,10.901071 0 0 0 -0.0877,1.3183 10.901071,10.901071 0 0 0 1.36663,5.27318 l 3.71074,-0.48094 c 0,0 9.01917,-2.20233 13.05677,-3.88032 1.74447,-0.72497 2.79291,-1.99785 3.42234,-3.21014 a 10.901071,10.901071 0 0 0 -2.31378,-4.71931 z m 2.5522,6.63245 c -0.24231,0.2811 -0.58685,0.78749 -1.06759,1.60834 -2.72531,4.65332 -13.97852,6.72995 -13.97852,6.72995 0,0 -1.53123,0.29579 -2.54402,0.64317 a 10.901071,10.901071 0 0 0 1.4068,0.92911 c 1.79753,-0.25938 5.68104,-0.88383 8.21865,-1.75745 3.39267,-1.16797 6.0997,-3.05923 6.63737,-3.59685 0.31642,-0.31644 0.72573,-1.02644 1.01186,-1.56081 a 10.901071,10.901071 0 0 0 0.32282,-2.61037 10.901071,10.901071 0 0 0 -0.008,-0.38509 z" /></g><g
       id="layer5"
       transform="translate(-36.377601,-13.587828)"><circle
         style="display:inline;opacity:0.6;fill:#233f5a;fill-opacity:1;stroke-width:3.17099;stroke-linecap:round;stroke-linejoin:round"
         id="circle29802"
         cx="223.96492"
         cy="94.517044"
         r="14.916754" /><path
         id="path304"
         style="display:inline;opacity:0.6;fill:#192838;fill-opacity:1;stroke-width:3.17099;stroke-linecap:round;stroke-linejoin:round"
         d="m 225.65948,81.306886 c -1.68125,-0.01268 -3.24453,0.204005 -4.77831,0.361318 -2.04503,0.209745 -3.35595,1.415797 -3.35595,1.415797 0,0 0,2.516971 -2.25479,2.516971 -2.25478,0 -3.61814,1.310917 -3.61814,1.310917 l -0.46129,-0.08276 a 14.916754,14.916754 0 0 0 -2.14254,7.687739 14.916754,14.916754 0 0 0 14.91667,14.916652 14.916754,14.916754 0 0 0 13.46317,-8.49888 c -0.60977,0.1075 -0.58231,0.11336 -0.83572,0.47768 -0.29663,0.4264 -1.27878,1.094 -4.15234,2.00243 -2.87359,0.90841 -1.98405,1.57541 -1.46496,1.96474 0.51918,0.38932 1.89136,0.11114 0.37116,1.3904 -1.5202,1.27921 -2.25892,0.0287 -4.92005,-0.20729 -2.66119,-0.23597 -5.53211,0.36706 -7.99663,-1.7042 -2.46454,-2.07125 -0.72102,-3.02823 -0.30151,-2.79227 0.41949,0.23597 3.72299,-1.82218 5.46654,-2.726715 1.7435,-0.90454 1.87459,-2.294114 0.31463,-1.074949 -1.56002,1.219149 -3.76235,1.625559 -5.36168,2.385874 -1.59932,0.76034 -3.27731,-0.36707 -4.50957,-0.878324 -1.23225,-0.511242 -0.90451,-1.284693 -1.36337,-3.146204 -0.45879,-1.861512 0.95697,-5.872936 0.95697,-5.872936 0,0 1.88776,-2.031921 1.9664,-1.455118 0.0786,0.576802 0.53748,2.962684 1.37646,-0.655459 0.83899,-3.618158 4.03761,-1.677911 4.57511,-1.57311 0.53745,0.104801 1.9533,-0.196633 2.03194,-1.206053 0.0786,-1.009404 1.19296,-0.996292 2.04503,-0.799659 0.85212,0.196601 3.91967,0.157281 4.95528,0.249081 1.03565,0.0918 3.53951,2.897139 3.53951,2.897139 0,0 1.63867,2.805372 1.9926,2.490746 0.35388,-0.314625 0.2884,-0.485034 0.2884,-1.900831 0,-1.415782 -4.29983,-3.303534 -4.29983,-3.303534 0,0 -3.09377,-2.09748 -0.73411,-1.46823 2.35966,0.629235 4.19494,2.621851 4.19494,2.621851 0,0 -0.6817,-1.992616 -2.09748,-3.04134 -1.41578,-1.04874 -3.72302,-1.940152 -6.08266,-2.202345 -0.58992,-0.06548 -1.16345,-0.09513 -1.72388,-0.09909 z" /></g></g></svg>
