<?xml version="1.0" encoding="UTF-8" standalone="no"?>
<!-- Created with Inkscape (http://www.inkscape.org/) -->

<svg
   width="75"
   height="250"
   viewBox="0 0 19.84375 66.145836"
   version="1.1"
   id="svg5"
   xml:space="preserve"
   xmlns="http://www.w3.org/2000/svg"
   xmlns:svg="http://www.w3.org/2000/svg"><defs
     id="defs2" /><g
     id="layer1"
     style="display:inline"><g
       id="mercury"><rect
         style="fill-opacity:1;stroke:none;stroke-width:1.17839;stroke-linecap:round;stroke-dasharray:none;stroke-opacity:1"
         id="column"
         width="9.7612247"
         height="7"
         x="5.0409999"
         y="45"
         ry="1.4598682"
         rx="4.8806124" /><path
         id="circle2666"
         style="opacity:1;fill-opacity:1;stroke:none;stroke-width:1.17839;stroke-linecap:round;stroke-dasharray:none;stroke-opacity:1"
         d="M 4.6277424,47.521171 A 8.5410715,8.5410715 0 0 0 1.3807572,54.22183 8.5410715,8.5410715 0 0 0 9.9218112,62.762884 8.5410715,8.5410715 0 0 0 18.462993,54.22183 8.5410715,8.5410715 0 0 0 15.218152,47.521171 Z" /></g><path
       id="rect234"
       style="opacity:1;fill:none;stroke:#bbb1ba;stroke-width:1.17839;stroke-linecap:round;stroke-dasharray:none;stroke-opacity:1"
       d="m 9.9218112,3.3829497 c -2.703856,0 -4.880566,1.313896 -4.880566,2.94597 V 47.215994 a 8.5410715,8.5410715 0 0 0 -3.660488,7.005836 8.5410715,8.5410715 0 0 0 8.541054,8.541054 8.5410715,8.5410715 0 0 0 8.5411818,-8.541054 8.5410715,8.5410715 0 0 0 -3.660488,-7.00836 V 6.3289197 c 0,-1.632074 -2.176836,-2.94597 -4.8806938,-2.94597 z" /></g></svg>
