<?xml version="1.0" encoding="UTF-8" standalone="no"?>
<!-- Created with Inkscape (http://www.inkscape.org/) -->

<svg
   width="100%"
   height="100%"
   viewBox="0 0 508 285.75"
   version="1.1"
   id="svg5"
   xml:space="preserve"
   xmlns="http://www.w3.org/2000/svg"
   xmlns:svg="http://www.w3.org/2000/svg"><defs
     id="defs2" /><g
     id="layer1"><path
       style="fill:#15202c;fill-opacity:1;stroke:none;stroke-width:0.264583px;stroke-linecap:butt;stroke-linejoin:miter;stroke-opacity:1"
       d="m 81.758279,285.11018 c 3.26439,0.23474 6.39032,-0.48361 9.65636,0.0943 10.982001,1.94313 0.473587,-6.14179 11.778161,-6.45529 31.32669,-0.86876 12.71728,-17.69812 42.72963,-25.34211 45.69675,-11.63872 46.87645,-25.70478 86.48211,-52.38123 19.19106,-12.92617 37.94434,-27.06462 53.35372,-44.404 4.70162,-5.2905 15.5257,-31.59589 20.5087,-32.80802 2.31717,-0.56366 8.70514,6.20324 10.14363,7.27811 19.54564,14.60486 40.4223,25.90043 57.65016,43.64978 19.37716,19.96371 32.11468,44.65979 49.41142,66.25715 8.61957,10.76268 18.97345,18.96642 29.16846,28.05652 8.82343,7.86718 16.81382,16.56284 25.84616,24.19123 5.70294,4.8165 28.11436,25.31824 18.31613,33.44912 -10.71674,8.89305 -73.73535,-0.35888 -88.47976,-0.0377 -54.92655,1.1964 -109.22442,4.02514 -164.18033,0.33938 -7.8031,-0.52331 -15.42095,-2.90179 -23.25502,-3.54478 -22.16672,-1.81932 5.80008,0.97655 -16.31848,-1.31834 -15.33626,-1.59118 -30.84462,-0.24615 -46.17784,-2.14948 -19.74996,-2.4516 9.76071,0.37562 -10.15045,-0.18783 -17.79068,-0.50345 -40.13018,3.97094 -56.011344,-5.73202 -11.831061,-7.22841 6.672423,-5.16829 -1.058687,-15.49212 -2.59817,-3.4695 -9.41273,-8.04142 -9.41273,-13.46261 z"
       id="back-shadow" /><path
       id="back-face"
       style="fill:#1a2c3d;fill-opacity:1;stroke:none;stroke-width:0.264583px;stroke-linecap:butt;stroke-linejoin:miter;stroke-opacity:1"
       d="m 306.49611,123.78228 c -0.08,0.004 -0.15652,0.0139 -0.22893,0.0315 -0.36468,0.0887 -0.76393,0.32615 -1.18649,0.66559 1.64535,3.5711 3.05291,6.67021 4.16667,8.3721 11.92807,18.22673 23.4095,36.67631 37.58478,53.34144 1.76482,2.0748 3.56792,4.11987 5.44825,6.09059 2.82611,2.96196 6.94219,3.15509 4.11965,-1.33894 -3.41464,-5.43671 -9.38881,-11.12224 -9.90018,-17.59169 -0.3561,-4.50526 -2.03833,-7.97386 -4.58473,-11.65252 -0.82705,-1.19481 -2.58868,-4.10685 -3.21427,-5.13715 1.51301,2.3314 8.81411,4.63837 11.20965,6.17378 2.99424,1.91916 5.46027,5.24143 8.26099,7.52357 4.3953,3.58146 7.71142,8.55103 11.80497,12.4256 3.88549,3.6777 8.34922,6.37768 11.87111,10.48308 1.93166,2.25173 3.61013,4.6932 5.29166,7.13703 0.25984,5.31286 4.12939,16.72191 4.81832,21.55373 2.19168,15.37159 0.10942,19.58115 4.4173,39.13869 0.74761,3.39403 4.53791,7.31445 5.83582,11.92951 3.02193,10.7452 1.74006,21.13576 3.33468,31.12265 0.89081,5.579 -0.9772,13.51875 3.0396,19.92695 1.68061,2.68115 8.91837,-9.34201 9.24492,-11.59413 2.43172,-16.77156 -2.01399,-31.40919 -8.41551,-53.53006 -2.12851,-7.35523 0.29428,-10.66005 -3.04219,-19.06809 -4.34919,-10.96012 -10.80084,-21.29723 -13.67875,-32.04714 0.0838,0.0959 0.16528,0.19363 0.25011,0.28887 5.52246,6.19978 11.52928,13.7328 18.16117,18.74201 1.12594,0.85045 2.30184,1.66207 3.51038,2.4505 -13.17744,-18.45783 -24.62415,-38.06565 -40.55412,-54.47782 -17.22782,-17.74931 -38.10462,-29.04521 -57.65022,-43.65005 -1.34859,-1.00768 -7.04767,-7.01791 -9.66401,-7.30084 -0.0872,-0.009 -0.17065,-0.0124 -0.25063,-0.009 z" /></g><g
     id="layer2"><path
       style="fill:#141f2a;fill-opacity:1;stroke:none;stroke-width:0.264583px;stroke-linecap:butt;stroke-linejoin:miter;stroke-opacity:1"
       d="m 428.88638,303.57124 c -1.28416,-0.66664 -2.64372,-1.2047 -3.85247,-1.9999 -3.42807,-2.25518 -3.44924,-8.23846 -5.66909,-11.43942 -3.73849,-5.39075 -12.94689,-8.84507 -18.44845,-11.62603 -8.2528,-4.17169 -16.56545,-9.19557 -25.46434,-11.81272 -14.58114,-4.28829 -31.77773,-6.08226 -45.13429,-14.23927 -4.95949,-3.02882 -18.31682,-12.6345 -22.70795,-16.82581 -2.35675,-2.2495 -3.4708,-6.84803 -5.88856,-8.61287 -4.93181,-3.60001 -10.53156,-3.30415 -15.19085,-8.39957 -14.51305,-15.87153 -5.19877,-19.24182 -27.34373,-33.73154 -20.75256,-13.57865 -44.02706,-13.57525 -65.6811,-23.94544 -11.76008,-5.63194 -19.95855,-17.19049 -30.50712,-24.37204 -0.67158,-0.45722 -0.92401,1.40893 -1.62871,1.81323 -1.79328,1.02883 -3.78404,1.6346 -5.63787,2.58653 -4.89513,2.51363 -10.85897,3.66232 -15.97397,5.83971 -17.11565,7.2859 -23.81629,21.27834 -37.20986,32.55827 -20.741331,17.46814 -42.747409,32.89879 -64.271681,49.27746 -8.236683,6.26762 -13.958608,14.55094 -21.047998,21.9455 -7.5258753,7.84985 -16.80461019,13.65325 -24.4620852,21.33221 -18.8518948,18.90477 -36.4565338,39.84543 -55.9400498,58.02362 -3.758079,3.50629 -13.151498,9.54186 -10.74329,15.49252 7.349852,18.16145 107.53596,26.11234 118.144611,27.41195 34.682342,4.24873 69.201843,10.13875 104.081263,12.63933 23.10794,1.65666 46.28874,1.17792 69.40833,2.37315 44.24728,2.28754 92.67852,14.46284 136.12308,-0.79994 11.65,-4.09281 30.91431,-11.00222 38.24351,-21.67882 3.95716,-5.76453 6.2838,-22.56285 13.15495,-33.19828 4.30966,-6.67064 9.26608,-14.13642 14.31404,-20.29229 2.98757,-3.64326 7.52252,-3.56881 9.33368,-8.31954 z"
       id="front-shadow" /><path
       id="front-face"
       style="fill:#223b55;fill-opacity:1;stroke:#000000;stroke-width:0.264583px;stroke-linecap:butt;stroke-linejoin:miter;stroke-opacity:0"
       d="m 162.76474,136.49658 c -0.18382,0.0204 -0.33442,0.2542 -0.48369,0.52555 1.74019,6.34589 1.85388,12.71102 6.54327,18.557 5.99129,7.46902 15.57335,11.83192 22.5826,18.31878 6.05903,5.60745 9.76096,13.13197 15.06575,19.33267 1.59594,1.86547 5.01556,3.72455 6.20169,5.78621 3.38907,5.89066 5.08478,12.63264 9.08316,18.2392 4.74412,6.65222 11.01505,12.14929 15.56701,18.95853 3.89519,5.82678 4.79522,14.24534 8.04964,20.58583 6.79404,13.23657 32.78312,41.88887 45.1342,50.53076 5.3265,3.72689 19.02837,9.75888 25.21344,11.01277 6.13069,1.24284 13.37293,-0.94794 19.92075,0.21342 21.99304,3.90086 43.48673,9.65939 65.39911,13.97227 1.1621,0.22873 2.38689,0.44285 3.59255,0.66146 0.20163,-0.33597 0.39467,-0.68325 0.60461,-1.00821 4.30966,-6.67063 9.2659,-14.13643 14.31386,-20.2923 2.98756,-3.64325 7.52263,-3.56866 9.33379,-8.31939 -1.28416,-0.66663 -2.64373,-1.20467 -3.85248,-1.99987 -3.42806,-2.25518 -3.44957,-8.23814 -5.66942,-11.4391 -3.73848,-5.39074 -12.94641,-8.84521 -18.44797,-11.62616 -8.25279,-4.17169 -16.56571,-9.19557 -25.46459,-11.81272 -14.58113,-4.28828 -31.77765,-6.08244 -45.1342,-14.23944 -4.95948,-3.02882 -18.31705,-12.63454 -22.70817,-16.82585 -2.35675,-2.24949 -3.47077,-6.84807 -5.88853,-8.61291 -4.93181,-3.6 -10.53152,-3.30407 -15.19081,-8.39948 -14.51303,-15.87152 -5.19861,-19.24157 -27.34355,-33.73128 -20.75254,-13.57863 -44.02724,-13.57564 -65.68126,-23.94582 -11.76007,-5.63194 -19.95862,-17.1901 -30.50718,-24.37164 -0.084,-0.0571 -0.16103,-0.0783 -0.23358,-0.0703 z" /></g></svg>
