<?xml version="1.0" encoding="UTF-8" standalone="no"?>
<!-- Created with Inkscape (http://www.inkscape.org/) -->

<svg
   width="100%"
   height="100%"
   viewBox="0 0 508 285.75"
   version="1.1"
   id="svg5"
   xml:space="preserve"
   xmlns:xlink="http://www.w3.org/1999/xlink"
   xmlns="http://www.w3.org/2000/svg"
   xmlns:svg="http://www.w3.org/2000/svg"><defs
     id="defs2"><linearGradient
       id="linearGradient487"><stop
         style="stop-color:#1a2c3e;stop-opacity:1;"
         offset="0"
         id="stop483" /><stop
         style="stop-color:#0f141a;stop-opacity:1;"
         offset="1"
         id="stop485" /></linearGradient><linearGradient
       xlink:href="#linearGradient487"
       id="linearGradient489"
       x1="254"
       y1="21.3125"
       x2="254"
       y2="244.75"
       gradientUnits="userSpaceOnUse" /><linearGradient
       xlink:href="#linearGradient487"
       id="linearGradient2"
       gradientUnits="userSpaceOnUse"
       x1="254"
       y1="21.3125"
       x2="254"
       y2="244.75" /></defs><g
     id="layer1"
     style="display:none;fill:url(#linearGradient489);fill-opacity:1"><rect
       style="fill:url(#linearGradient2);fill-opacity:1;stroke-width:2;stroke-linecap:round;stroke-linejoin:round"
       id="rect416"
       width="544.47217"
       height="312.09927"
       x="-22.848387"
       y="-13.611805" /></g><g
     id="layer7"
     transform="translate(-439.78969,170.81632)"
     style="display:inline;opacity:1"><circle
       style="display:inline;opacity:1;fill:#203850;fill-opacity:1;stroke:none;stroke-width:8.83125;stroke-linecap:round;stroke-linejoin:round;stroke-dasharray:none;stroke-opacity:1"
       id="path35186"
       cx="752.0329"
       cy="-22.216248"
       r="126.56086" /><path
       id="circle5740"
       style="display:inline;opacity:1;fill:#243f5b;fill-opacity:1;stroke:none;stroke-width:8.83125;stroke-linecap:round;stroke-linejoin:round;stroke-dasharray:none;stroke-opacity:1"
       d="m 752.03325,-148.77742 c -41.49268,0.0136 -80.34338,20.36476 -103.97902,54.467576 11.47486,-3.78119 5.89458,-4.04099 13.45186,-11.540656 0.0181,-0.0613 1.46243,0.27169 1.60003,0.28934 1.90521,0.24332 4.87306,0.7196 4.94246,3.13435 0.0908,3.161906 -6.42214,7.825216 -4.58831,10.947363 0.13407,0.228182 2.86489,-3.101147 3.5615,-4.782747 -0.0159,0.0954 -0.041,0.21232 -0.0492,0.27383 -0.18697,1.39305 -0.47286,2.9129 0.11321,4.256081 1.48037,3.393217 5.28421,4.221873 6.35904,0.301218 1.37886,-5.030039 1.52895,-9.306105 4.00781,-14.214975 2.4006,-4.75382 6.92689,-4.97832 10.05472,-8.17357 0.95852,-0.97913 1.46619,-2.51714 2.60586,-3.41271 2.01168,-1.58082 6.80916,-2.63722 9.28984,-2.98922 3.01998,-0.42851 3.52149,0.99422 6.30154,1.39831 1.35655,0.19719 2.49445,-0.61518 3.71028,-0.61518 0.73344,0 -2.73324,-1.27931 -3.11518,-2.58031 -0.0183,-0.0629 2.81349,0.13543 0.43903,-2.59125 -0.50776,-0.58307 -5.35321,1.00916 -5.35321,-0.98943 0,-3.37399 14.9851,1.38981 17.06454,-0.38515 1.43781,-1.22727 -10.0208,-1.72051 -7.36398,-6.23307 0.1887,-0.32052 4.26659,2.52719 4.58836,2.66427 0.2094,0.0893 -0.25914,-0.41209 -0.24006,-0.63891 2.2e-4,-0.003 1.57447,-0.46087 1.7269,-0.51844 1.30542,-0.49256 2.11642,-2.10794 3.25756,-2.52007 1.85014,-0.66825 5.69808,0.13939 6.99612,-0.80778 1.4945,-1.09038 1.45891,-1.79221 3.6108,-2.09746 1.6531,-0.23448 3.91611,1.40433 5.33859,0.96384 2.97572,-0.92143 8.35497,-8.33045 11.84003,-6.35357 0.43681,0.24779 -2.63676,2.01258 -2.88973,2.54381 -0.8913,1.87167 -1.54655,4.11372 1.50146,2.60403 2.53971,-1.25794 14.28763,-6.54852 16.0879,-4.76175 0.81353,0.80742 -5.38482,2.21876 -5.73564,2.43519 -1.34037,0.82694 -4.29216,5.84236 -2.19515,6.71592 5.81929,2.42412 6.059,-3.85688 9.80006,-6.16099 1.30552,-0.80401 2.70417,-0.93864 4.2196,-0.9766 0.61836,-0.0159 1.5134,-0.85887 1.82729,-0.32587 0.20538,0.3488 -1.81405,5.25517 0.51023,3.87002 3.02403,-1.80223 2.27354,-4.07809 7.19327,-2.90526 0.4132,0.0986 2.06826,0.0956 2.26634,0.26469 1.77096,1.51226 -8.80634,1.22138 -6.33075,4.55821 4.69461,6.3281 5.0725,-2.98522 9.43223,-1.70042 4.40366,1.29778 1.57386,5.76126 3.76685,6.20936 1.39505,0.28507 7.01242,-7.27407 8.4264,-0.77217 1.37622,6.32798 -25.53391,9.40119 -9.0215,17.18043 6.95397,3.27613 7.40156,-2.20871 9.29077,-2.82128 0.94827,-0.30757 2.32397,0.40158 3.20004,-0.20443 0.9231,-0.63855 1.85061,-2.20609 3.0449,-2.20609 0.58489,0 -2.13846,-0.42711 -1.61464,-0.68729 1.16161,-0.57703 6.37139,-1.38334 8.08685,-1.83279 1.20177,-0.31487 3.91495,2.66253 5.18252,2.78477 0.022,0.003 3.78767,-0.76153 3.85267,-0.65079 0.59199,1.00865 1.42791,1.28016 2.52006,1.57905 3.38913,0.92743 7.90887,-0.28021 11.13176,1.43481 2.7742,1.47624 4.24748,4.52465 6.27323,6.67941 0.35115,0.37349 4.50889,2.67925 4.81469,2.80942 0.37863,0.16125 1.80575,-0.44098 1.8273,-0.42261 0.93801,0.80067 0.61743,3.37849 1.52882,4.57008 0.41281,0.53971 3.47974,2.788146 3.44194,3.399026 -0.15225,2.46509 -3.75253,3.5745 -2.23802,5.992122 1.25581,2.004593 7.98567,3.558391 10.31026,5.90816 2.20858,2.232385 -0.58315,4.084916 0.59421,6.353552 0.82824,1.595829 -4.80723,5.192219 -5.35321,3.797904 -0.53054,-1.354826 3.7776,-5.864636 1.21852,-8.704771 -1.57172,-1.744282 -3.50247,-3.40205 -5.79223,-3.954888 -0.22012,-0.05314 -0.86296,-0.275751 -0.79319,-0.180727 0.006,0.0057 -3.45815,1.312349 -3.83804,1.543438 -0.58917,0.358477 -0.34065,2.655776 -2.16685,3.544153 -2.2528,1.095919 -3.60259,-1.311355 -5.33861,-0.36145 -2.38824,1.306856 -1.03872,3.906107 -2.06735,5.329477 -0.036,0.05002 -17.70798,3.529838 -18.70744,3.483918 -1.56741,-0.07207 -4.29937,-0.174854 -5.53759,-1.326205 -0.46259,-0.430208 -2.91713,-4.226786 -3.56881,-4.147479 -1.56776,0.190697 -1.62311,0.912295 -1.89758,1.844655 -0.25197,0.856026 -1.83998,0.221508 -2.57755,0.723794 -1.56296,1.064448 -3.66018,3.215744 -5.52299,3.182715 -2.14135,-0.03799 -5.96667,-4.381846 -5.83421,0.07207 0.11646,3.913706 3.29085,4.697086 4.39027,8.089591 0.46667,1.439992 -3.21118,3.215633 -3.24386,4.61845 -0.0612,2.620005 4.11109,3.155754 5.3961,4.738015 0.61426,0.756412 -0.75036,2.917357 -0.32586,3.134342 2.95502,1.510342 3.35173,4.782231 5.90542,6.281466 2.19525,1.288798 5.68382,-7.763933 7.54833,-4.14748 0.73104,1.417868 0.23925,3.424711 -0.31124,4.834768 -0.10721,0.274648 1.20093,1.435658 0.93464,1.724163 -0.49358,0.534737 -1.48732,0.308859 -1.54436,1.277824 -0.12238,2.080079 4.33045,14.9174 5.38149,16.14359 1.01668,1.185996 3.39606,1.577393 4.70153,2.266318 6.35781,3.355141 13.40984,2.154706 20.30839,2.580312 3.11418,0.192133 5.17861,1.370998 8.44007,0.940119 2.01304,-0.265942 4.59076,-1.669294 6.27416,-2.80849 1.63344,-1.105341 4.00188,-1.852787 4.98447,-3.702064 0.40409,-0.760445 1.35436,-3.469225 1.52975,-3.472055 1.29842,-0.0205 2.17886,-1.044896 2.68345,-1.992506 -0.023,1.421342 0.21725,3.330932 0.24734,3.619917 0.22373,2.142697 -2.99325,5.279847 -4.44595,6.595435 -2.69105,2.43704 2.3102,2.41624 0.58051,5.184351 -1.28865,2.062258 -3.00682,5.468748 -4.65952,7.233443 -2.59858,2.774607 -5.52531,4.623121 -7.20788,8.246581 -1.64801,3.54918937 0.57265,8.6888281 0.14151,12.3821896 -0.49622,4.2503294 -3.6571,7.8503924 -4.00783,12.0317034 -0.034,0.405939 4.60396,6.324969 5.06113,6.592698 4.38016,2.565069 14.20436,0.894769 20.07381,-2.066437 h 9.2e-4 c 10e-4,-0.0028 10e-4,-0.0054 0.003,-0.0083 0.31163,-0.771101 0.60931,-1.546526 0.90544,-2.322914 0.83813,-2.1971 1.61486,-4.417129 2.3293,-6.657506 0.21648,-0.679056 0.42763,-1.359488 0.63254,-2.041794 0.71526,-2.385821 1.35992,-4.7922338 1.93316,-7.2160992 0.13211,-0.557555 0.26522,-1.1147257 0.38973,-1.6739599 0.57425,-2.5876173 1.0671,-5.19263653 1.47774,-7.8112039 0.0654,-0.414695 0.13498,-0.828695 0.19623,-1.244061 0.41089,-2.799212 0.72777,-5.611415 0.95017,-8.431867 0.0194,-0.243907 0.044,-0.487045 0.0621,-0.731102 0.22566,-3.057672 0.34014,-6.122536 0.34319,-9.188525 4e-4,-1.086288 -0.0136,-2.172537 -0.041,-3.258473 v -0.0077 c -0.0265,-0.992559 -0.0651,-1.984775 -0.11494,-2.976443 -0.0136,-0.287114 -0.0332,-0.573837 -0.0492,-0.860706 -0.04,-0.719917 -0.0864,-1.439488 -0.13879,-2.158628 -0.0232,-0.316635 -0.0474,-0.632945 -0.0729,-0.949246 -0.0605,-0.742633 -0.1274,-1.484707 -0.2008,-2.226159 -0.0254,-0.256724 -0.048,-0.513892 -0.0749,-0.770348 -0.10294,-0.983114 -0.21727,-1.96498 -0.34319,-2.945408 -0.0223,-0.174008 -0.048,-0.347291 -0.0712,-0.521167 -0.10814,-0.813449 -0.22396,-1.625819 -0.34776,-2.437018 -0.0471,-0.307555 -0.0968,-0.614754 -0.14607,-0.921865 -0.11206,-0.69708 -0.22966,-1.393224 -0.35324,-2.088332 -0.054,-0.304426 -0.10709,-0.608819 -0.16337,-0.912743 -0.15331,-0.828222 -0.31486,-1.654904 -0.48465,-2.479906 -0.0306,-0.1486 -0.0583,-0.297866 -0.0894,-0.446329 -0.20458,-0.973665 -0.4206,-1.944882 -0.64805,-2.913457 -0.0568,-0.242898 -0.11782,-0.484928 -0.1761,-0.727448 -0.17045,-0.708277 -0.34682,-1.41507 -0.52938,-2.120295 -0.0884,-0.341221 -0.17808,-0.681851 -0.26928,-1.022259 -0.18205,-0.678811 -0.36979,-1.356085 -0.56315,-2.031763 -0.0775,-0.271017 -0.1526,-0.542791 -0.23183,-0.81325 -0.27537,-0.941895 -0.56169,-1.880548 -0.85888,-2.815781 -0.0539,-0.169029 -0.1116,-0.336865 -0.16622,-0.50566 -0.2491,-0.771273 -0.50557,-1.54014 -0.76943,-2.306479 -0.10802,-0.313236 -0.21914,-0.625026 -0.3295,-0.937394 -0.22521,-0.638026 -0.45554,-1.274204 -0.69094,-1.908543 -0.11615,-0.312959 -0.23177,-0.626241 -0.35049,-0.938286 -0.29512,-0.774816 -0.59787,-1.546723 -0.90818,-2.315613 -0.0583,-0.14447 -0.11367,-0.290155 -0.17255,-0.434464 -0.36867,-0.904008 -0.74779,-1.803715 -1.13729,-2.698956 -0.11797,-0.271439 -0.24062,-0.540795 -0.36053,-0.811433 -0.28752,-0.649901 -0.58053,-1.297353 -0.87895,-1.942297 -0.13862,-0.299311 -0.27883,-0.598045 -0.41988,-0.896309 -0.30137,-0.636913 -0.60805,-1.271274 -0.92001,-1.903064 -0.13347,-0.270736 -0.26513,-0.54251 -0.40071,-0.812334 -0.43545,-0.868237 -0.88091,-1.73145 -1.33624,-2.589438 -0.0812,-0.152953 -0.1664,-0.303756 -0.24828,-0.456365 -0.38731,-0.721834 -0.78163,-1.43989 -1.1829,-2.154049 -0.15913,-0.283148 -0.32143,-0.565024 -0.48282,-0.847026 -0.33667,-0.588107 -0.67804,-1.173496 -1.02411,-1.756124 -0.17608,-0.296438 -0.35174,-0.592965 -0.5303,-0.888088 -0.41429,-0.684559 -0.8351,-1.365185 -1.26231,-2.041789 -0.0947,-0.150301 -0.18647,-0.3027 -0.28204,-0.452711 -0.53272,-0.835096 -1.07523,-1.66393 -1.62741,-2.486304 -0.15123,-0.22554 -0.30632,-0.44892 -0.4591,-0.6736 -0.39704,-0.58446 -0.79895,-1.16557 -1.20572,-1.74332 -0.21495,-0.30498 -0.43211,-0.60859 -0.64988,-0.91183 -0.38138,-0.53055 -0.76687,-1.05811 -1.15643,-1.58269 -0.20225,-0.27264 -0.4024,-0.54666 -0.60699,-0.81781 -0.5891,-0.78276 -1.18731,-1.55863 -1.79443,-2.327486 -0.63269,-0.79814 -1.275,-1.58863 -1.92679,-2.37128 -0.17805,-0.21389 -0.35898,-0.42536 -0.5385,-0.638 l -0.009,-0.009 c -0.48204,-0.57325 -0.96917,-1.14221 -1.46129,-1.70681 -0.006,-0.009 -0.0159,-0.0177 -0.0227,-0.0256 -0.24373,-0.27825 -0.49061,-0.55344 -0.73659,-0.82968 l -9e-4,-9e-4 c -0.43852,-0.49389 -0.88092,-0.98436 -1.32713,-1.47134 -0.28572,-0.31098 -0.57468,-0.61921 -0.86345,-0.92733 -0.18503,-0.19793 -0.37319,-0.39291 -0.55953,-0.58964 -0.2417,-0.25688 -0.48448,-0.51275 -0.72834,-0.7676 -0.009,-0.009 -0.0159,-0.0159 -0.0247,-0.0245 -0.30883,-0.31967 -0.61981,-0.63735 -0.93189,-0.95381 -0.4097,-0.4154 -0.82227,-0.82797 -1.23767,-1.23767 -0.33489,-0.33034 -0.671,-0.65914 -1.00952,-0.98576 l -0.003,-0.003 c -0.43152,-0.41563 -0.86599,-0.82822 -1.30339,-1.23768 -0.31987,-0.3 -0.63996,-0.59961 -0.96293,-0.8963 -0.49387,-0.45271 -0.99132,-0.90148 -1.49233,-1.34631 -0.26644,-0.2371 -0.53206,-0.47518 -0.80047,-0.7101 l -0.006,-0.006 c -0.58467,-0.51015 -1.17405,-1.01494 -1.76801,-1.51423 -0.20221,-0.17045 -0.40274,-0.34281 -0.60604,-0.51206 -0.74446,-0.61924 -1.49599,-1.2299 -2.25446,-1.83188 -0.0407,-0.0323 -0.08,-0.0659 -0.1204,-0.0985 l -0.0256,-0.0202 c -0.80825,-0.63852 -1.62433,-1.26713 -2.44795,-1.88573 -0.11032,-0.0832 -0.22247,-0.16443 -0.33314,-0.24734 -21.87075,-16.3385 -48.43826,-25.16724 -75.73803,-25.16872 z" /></g><g
     id="layer3"
     style="display:inline"><g
       id="layer6"><circle
         style="opacity:1;fill:#213a53;fill-opacity:1;stroke:none;stroke-width:8.71745;stroke-linecap:round;stroke-linejoin:round;stroke-dasharray:none;stroke-opacity:1"
         id="path30241"
         cx="458.05264"
         cy="37.386261"
         r="11.987428" /><path
         id="circle31349"
         style="opacity:1;fill:#2a4c6d;fill-opacity:1;stroke:none;stroke-width:8.71745;stroke-linecap:round;stroke-linejoin:round;stroke-dasharray:none;stroke-opacity:1"
         d="m 464.49818,27.279064 c -0.70797,0.253081 -1.42035,0.487616 -1.98124,0.627058 -2.09909,0.521937 -1.64945,1.00384 -6.17529,1.941611 -3.19585,0.662199 -6.69175,1.073971 -8.49172,1.261376 a 11.987427,11.987427 0 0 0 -1.55419,3.982319 c 1.24806,-0.390087 3.38112,-1.07599 4.33643,-1.497422 1.38631,-0.611628 3.99506,-1.630471 7.01229,-2.160532 2.27342,-0.399389 6.64785,-1.976971 8.66918,-2.73177 a 11.987427,11.987427 0 0 0 -1.81546,-1.42264 z m 2.72728,2.390278 c -1.33727,1.506193 -9.08799,3.896575 -13.27053,4.913929 -4.26697,1.037919 -7.55378,1.326244 -7.55378,1.326244 -0.0879,-0.0012 -0.16632,0.0058 -0.23966,0.027 a 11.987427,11.987427 0 0 0 -0.0965,1.449691 11.987427,11.987427 0 0 0 1.50282,5.798672 l 4.08054,-0.528873 c 0,0 9.91799,-2.421795 14.35795,-4.267021 1.91833,-0.797221 3.07126,-2.196942 3.76341,-3.53004 a 11.987427,11.987427 0 0 0 -2.54436,-5.189617 z m 2.80653,7.293405 c -0.26646,0.309121 -0.64533,0.865979 -1.17397,1.768633 -2.99691,5.117039 -15.37158,7.400627 -15.37158,7.400627 0,0 -1.68382,0.325254 -2.79753,0.707263 a 11.987427,11.987427 0 0 0 1.54699,1.0217 c 1.97667,-0.285216 6.24718,-0.971903 9.03769,-1.932582 3.73076,-1.284375 6.70756,-3.364102 7.29883,-3.955292 0.34794,-0.347989 0.79806,-1.128742 1.11269,-1.716366 a 11.987427,11.987427 0 0 0 0.35499,-2.870508 11.987427,11.987427 0 0 0 -0.009,-0.423475 z" /></g><g
       id="layer5"
       transform="translate(-36.377601,-13.587828)"><circle
         style="display:inline;opacity:1;fill:#233f5a;fill-opacity:1;stroke-width:5.40464;stroke-linecap:round;stroke-linejoin:round"
         id="circle29802"
         cx="133.38879"
         cy="187.60408"
         r="25.424154" /><path
         id="path304"
         style="display:inline;opacity:1;fill:#192838;fill-opacity:1;stroke-width:5.40464;stroke-linecap:round;stroke-linejoin:round"
         d="m 136.27697,165.08864 c -2.86553,-0.0216 -5.52998,0.3477 -8.14416,0.61583 -3.48557,0.35748 -5.71989,2.41309 -5.71989,2.41309 0,0 0,4.28992 -3.84307,4.28992 -3.84306,0 -6.16678,2.23434 -6.16678,2.23434 l -0.78622,-0.14106 a 25.424157,25.424157 0 0 0 -3.65174,13.10301 25.424157,25.424157 0 0 0 25.42401,25.42399 25.424157,25.424157 0 0 0 22.94666,-14.48552 c -1.03929,0.18323 -0.9925,0.19321 -1.42441,0.81415 -0.50557,0.72676 -2.17955,1.86462 -7.07725,3.41295 -4.89777,1.54831 -3.38161,2.68515 -2.49688,3.34871 0.8849,0.66356 3.22364,0.18942 0.6326,2.3698 -2.59102,2.18029 -3.85011,0.0489 -8.38575,-0.35329 -4.53573,-0.4022 -9.42893,0.62561 -13.62948,-2.90465 -4.20057,-3.53025 -1.2289,-5.16133 -0.51388,-4.75916 0.71499,0.4022 6.34548,-3.10572 9.31719,-4.64742 2.97161,-1.5417 3.19504,-3.91008 0.53624,-1.83214 -2.6589,2.0779 -6.41256,2.7706 -9.13844,4.06649 -2.72591,1.29592 -5.58587,-0.62564 -7.68615,-1.49701 -2.10025,-0.87139 -1.54165,-2.18964 -2.32373,-5.36241 -0.78196,-3.17277 1.63106,-10.00985 1.63106,-10.00985 0,0 3.21751,-3.46322 3.35155,-2.4801 0.13391,0.9831 0.91609,5.04959 2.34604,-1.11716 1.42997,-6.16681 6.88172,-2.85983 7.79783,-2.68122 0.91604,0.17862 3.3292,-0.33515 3.46324,-2.05559 0.13393,-1.72045 2.03329,-1.69809 3.48556,-1.36295 1.45236,0.3351 6.68069,0.26807 8.44579,0.42454 1.76516,0.15645 6.03276,4.93788 6.03276,4.93788 0,0 2.79294,4.78148 3.39619,4.24522 0.60315,-0.53623 0.49154,-0.82667 0.49154,-3.23977 0,-2.41306 -7.32864,-5.63053 -7.32864,-5.63053 0,0 -5.27303,-3.57497 -1.25122,-2.50248 4.02181,1.07248 7.14987,4.46869 7.14987,4.46869 0,0 -1.1619,-3.39621 -3.57495,-5.18366 -2.41305,-1.78748 -6.34552,-3.30679 -10.3673,-3.75369 -1.00546,-0.1116 -1.98298,-0.16209 -2.93819,-0.16891 z" /></g></g></svg>
