<?xml version="1.0" encoding="UTF-8" standalone="no"?>
<!-- Created with Inkscape (http://www.inkscape.org/) -->

<svg
   width="1920"
   height="1080"
   viewBox="0 0 508 285.75"
   version="1.1"
   id="svg5"
   xml:space="preserve"
   xmlns:xlink="http://www.w3.org/1999/xlink"
   xmlns="http://www.w3.org/2000/svg"
   xmlns:svg="http://www.w3.org/2000/svg"><defs
     id="defs2"><linearGradient
       id="linearGradient487"><stop
         style="stop-color:#1a2c3e;stop-opacity:1;"
         offset="0"
         id="stop483" /><stop
         style="stop-color:#0f141a;stop-opacity:1;"
         offset="1"
         id="stop485" /></linearGradient><linearGradient
       xlink:href="#linearGradient487"
       id="linearGradient489"
       x1="254"
       y1="21.3125"
       x2="254"
       y2="244.75"
       gradientUnits="userSpaceOnUse" /><linearGradient
       xlink:href="#linearGradient487"
       id="linearGradient2"
       gradientUnits="userSpaceOnUse"
       x1="254"
       y1="21.3125"
       x2="254"
       y2="244.75" /></defs><g
     id="layer1"
     style="display:none;fill:url(#linearGradient489);fill-opacity:1"><rect
       style="fill:url(#linearGradient2);fill-opacity:1;stroke-width:2;stroke-linecap:round;stroke-linejoin:round"
       id="rect416"
       width="544.47217"
       height="312.09927"
       x="-22.848387"
       y="-13.611805" /></g><g
     id="layer7"
     transform="translate(-439.78969,170.81632)"
     style="display:inline;opacity:1"><circle
       style="display:inline;opacity:1;fill:#203850;fill-opacity:1;stroke:none;stroke-width:5.81639;stroke-linecap:round;stroke-linejoin:round;stroke-dasharray:none;stroke-opacity:1"
       id="path35186"
       cx="684.74927"
       cy="-39.151463"
       r="83.354752" /><path
       id="circle5740"
       style="display:inline;opacity:1;fill:#243f5b;fill-opacity:1;stroke:none;stroke-width:5.81639;stroke-linecap:round;stroke-linejoin:round;stroke-dasharray:none;stroke-opacity:1"
       d="m 684.74949,-122.50642 c -27.32766,0.009 -52.91527,13.41252 -68.48203,35.873108 7.5575,-2.490346 3.88225,-2.661453 8.85958,-7.600839 0.0119,-0.04035 0.96318,0.178936 1.0538,0.190565 1.2548,0.160255 3.20947,0.473935 3.25518,2.064322 0.0598,2.082482 -4.22971,5.153803 -3.02193,7.210091 0.0883,0.150284 1.88685,-2.042458 2.34565,-3.149981 -0.0105,0.06281 -0.027,0.139836 -0.0324,0.180344 -0.12314,0.917487 -0.31143,1.918477 0.0746,2.803116 0.975,2.23482 3.48026,2.780584 4.18815,0.198386 0.90814,-3.312856 1.00699,-6.129135 2.6396,-9.362186 1.58108,-3.130927 4.56215,-3.27879 6.62218,-5.383224 0.6313,-0.644872 0.96566,-1.657822 1.71626,-2.247662 1.32492,-1.04115 4.48461,-1.73691 6.11842,-1.96874 1.989,-0.28222 2.3193,0.65481 4.15028,0.92095 0.89344,0.12987 1.64288,-0.40517 2.44364,-0.40517 0.48306,0 -1.80015,-0.84257 -2.0517,-1.69943 -0.0121,-0.0414 1.853,0.0892 0.28915,-1.70663 -0.33442,-0.38402 -3.5257,0.66464 -3.5257,-0.65165 0,-2.22216 9.8694,0.91534 11.23895,-0.25367 0.94696,-0.8083 -6.59984,-1.13315 -4.85002,-4.10519 0.12428,-0.21109 2.81003,1.66445 3.02195,1.75473 0.13792,0.0588 -0.17067,-0.27141 -0.1581,-0.4208 1.5e-4,-0.002 1.03697,-0.30353 1.13736,-0.34145 0.85977,-0.3244 1.3939,-1.38831 2.14547,-1.65975 1.21853,-0.44012 3.75284,0.0918 4.60775,-0.53201 0.9843,-0.71814 0.96086,-1.18038 2.37812,-1.38142 1.08876,-0.15443 2.57921,0.92491 3.51607,0.6348 1.95985,-0.60687 5.5027,-5.48655 7.79801,-4.18455 0.28769,0.16319 -1.73661,1.32551 -1.90322,1.67539 -0.58702,1.2327 -1.01858,2.70935 0.98888,1.71505 1.67269,-0.8285 9.41004,-4.31295 10.59572,-3.13616 0.5358,0.53178 -3.54652,1.46131 -3.77757,1.60385 -0.88279,0.54463 -2.82688,3.84786 -1.44576,4.4232 3.83267,1.59656 3.99054,-2.5402 6.45446,-4.05771 0.85983,-0.52953 1.781,-0.6182 2.77908,-0.64321 0.40727,-0.0105 0.99675,-0.56566 1.20348,-0.21462 0.13527,0.22972 -1.19475,3.46113 0.33605,2.54885 1.99167,-1.18697 1.49738,-2.68589 4.73759,-1.91344 0.27214,0.0649 1.36218,0.0629 1.49264,0.17433 1.16638,0.99599 -5.79998,0.80441 -4.16952,3.0021 3.09193,4.16777 3.34082,-1.96611 6.2122,-1.11992 2.90031,0.85473 1.03656,3.79444 2.4809,4.08957 0.9188,0.18775 4.61848,-4.79081 5.54974,-0.50857 0.9064,4.1677 -16.81699,6.19176 -5.94168,11.315274 4.57998,2.157708 4.87477,-1.454684 6.11903,-1.858134 0.62454,-0.20257 1.53059,0.26449 2.10759,-0.13464 0.60796,-0.42056 1.21883,-1.45296 2.00541,-1.45296 0.38522,0 -1.40842,-0.2813 -1.06342,-0.45266 0.76505,-0.38004 4.19628,-0.91109 5.32611,-1.2071 0.7915,-0.20738 2.57844,1.75358 3.41328,1.83409 0.0145,0.002 2.49461,-0.50156 2.53742,-0.42862 0.3899,0.66431 0.94044,0.84313 1.65975,1.03998 2.23213,0.61082 5.20889,-0.18455 7.33153,0.94499 1.82713,0.972269 2.79745,2.979993 4.13164,4.399149 0.23127,0.245989 2.96961,1.764591 3.17102,1.850324 0.24937,0.106203 1.18929,-0.290436 1.20348,-0.278337 0.61779,0.527333 0.40665,2.22512 1.00691,3.009917 0.27188,0.355464 2.2918,1.836317 2.26691,2.23865 -0.10028,1.623544 -2.47147,2.354216 -1.474,3.946496 0.8271,1.320253 5.25948,2.343606 6.79049,3.891197 1.4546,1.47028 -0.38408,2.690383 0.39135,4.184538 0.54549,1.051035 -3.16611,3.419668 -3.52569,2.501352 -0.34943,-0.892307 2.48797,-3.862531 0.80253,-5.733083 -1.03516,-1.148809 -2.30678,-2.240638 -3.81485,-2.604745 -0.14497,-0.035 -0.56835,-0.181613 -0.5224,-0.119029 0.004,0.0037 -2.27759,0.864331 -2.52779,1.01653 -0.38803,0.236098 -0.22435,1.749131 -1.42712,2.334229 -1.48372,0.721787 -2.37271,-0.863677 -3.51608,-0.238057 -1.57293,0.860714 -0.68412,2.572617 -1.36159,3.510068 -0.0237,0.03294 -11.66272,2.324801 -12.32098,2.294558 -1.03231,-0.04747 -2.83162,-0.115162 -3.64713,-0.873458 -0.30467,-0.283341 -1.92126,-2.78382 -2.35047,-2.731587 -1.03255,0.125595 -1.069,0.60085 -1.24977,1.214915 -0.16595,0.563791 -1.21184,0.145889 -1.69761,0.476701 -1.02939,0.70106 -2.41065,2.117934 -3.63752,2.09618 -1.41032,-0.02502 -3.92973,-2.885944 -3.84249,0.04747 0.0767,2.577621 2.1674,3.093567 2.89149,5.327918 0.30736,0.948398 -2.11493,2.11786 -2.13645,3.041775 -0.0403,1.725572 2.70762,2.078424 3.55394,3.120523 0.40456,0.498184 -0.49419,1.921412 -0.21461,2.064322 1.94622,0.994732 2.2075,3.149644 3.88939,4.137061 1.44582,0.84882 3.74345,-5.113435 4.97144,-2.731588 0.48147,0.933827 0.15757,2.255562 -0.20499,3.184245 -0.0706,0.180887 0.79095,0.945544 0.61557,1.135558 -0.32508,0.352185 -0.97957,0.203419 -1.01714,0.841593 -0.0806,1.369969 2.8521,9.824807 3.54433,10.632393 0.66959,0.781114 2.23669,1.038893 3.09649,1.492629 4.18734,2.209742 8.83191,1.419119 13.37539,1.69943 2.05104,0.126541 3.4107,0.902958 5.55875,0.619175 1.32581,-0.175153 3.02353,-1.09942 4.13225,-1.849711 1.0758,-0.727993 2.63569,-1.220271 3.28283,-2.438231 0.26615,-0.50084 0.89201,-2.28488 1.00752,-2.286744 0.85516,-0.0135 1.43503,-0.688183 1.76736,-1.312292 -0.0151,0.936116 0.14308,2.193798 0.1629,2.384128 0.14735,1.41121 -1.9714,3.477381 -2.92816,4.343846 -1.77237,1.605068 1.52153,1.591369 0.38233,3.414486 -0.84872,1.358231 -1.98034,3.601793 -3.06883,4.764046 -1.71146,1.827395 -3.63904,3.044852 -4.74721,5.431313 -1.0854,2.337546 0.37716,5.722584 0.0932,8.155083 -0.32681,2.799326 -2.40862,5.170378 -2.63961,7.924248 -0.0224,0.267357 3.03223,4.1657131 3.33333,4.3420431 2.88484,1.68939 9.35519,0.589307 13.22089,-1.360984 h 6.1e-4 c 7.3e-4,-0.0018 10e-4,-0.0036 0.002,-0.0055 0.20524,-0.507858 0.4013,-1.018564 0.59633,-1.529904 0.55201,-1.4470401 1.06357,-2.9091831 1.53411,-4.3847261 0.14258,-0.447236 0.28164,-0.895378 0.4166,-1.344754 0.47108,-1.571335 0.89566,-3.156232 1.27321,-4.752624 0.087,-0.367213 0.17468,-0.734174 0.25668,-1.102493 0.37821,-1.704241 0.7028,-3.419943 0.97326,-5.144568 0.0431,-0.273124 0.0889,-0.54579 0.12924,-0.819356 0.27062,-1.8436 0.47932,-3.695756 0.62579,-5.553345 0.0128,-0.160641 0.029,-0.320775 0.0409,-0.481514 0.14862,-2.013826 0.22402,-4.032388 0.22603,-6.051691 2.6e-4,-0.715445 -0.009,-1.430863 -0.027,-2.146076 v -0.0051 c -0.0175,-0.653713 -0.0429,-1.3072 -0.0757,-1.960327 -0.009,-0.189097 -0.0219,-0.377937 -0.0324,-0.566873 -0.0264,-0.474147 -0.0569,-0.948067 -0.0914,-1.421702 -0.0153,-0.20854 -0.0312,-0.416867 -0.048,-0.625187 -0.0398,-0.489108 -0.0839,-0.977849 -0.13225,-1.466179 -0.0167,-0.169082 -0.0316,-0.338457 -0.0493,-0.507362 -0.0678,-0.647493 -0.1431,-1.294163 -0.22603,-1.939887 -0.0147,-0.114604 -0.0316,-0.228731 -0.0469,-0.343248 -0.0712,-0.535749 -0.1475,-1.070787 -0.22904,-1.605054 -0.031,-0.20256 -0.0638,-0.404886 -0.0962,-0.607153 -0.0738,-0.459107 -0.15126,-0.917597 -0.23265,-1.375405 -0.0356,-0.200499 -0.0705,-0.400976 -0.1076,-0.601145 -0.10097,-0.545478 -0.20737,-1.089943 -0.3192,-1.633301 -0.0201,-0.09787 -0.0384,-0.196178 -0.0589,-0.293958 -0.13473,-0.64127 -0.27701,-1.280927 -0.42681,-1.918844 -0.0374,-0.159976 -0.0776,-0.31938 -0.11598,-0.479107 -0.11226,-0.466481 -0.22842,-0.931985 -0.34866,-1.396456 -0.0582,-0.224733 -0.11728,-0.449077 -0.17735,-0.673274 -0.1199,-0.447074 -0.24355,-0.893136 -0.3709,-1.338148 -0.0511,-0.178495 -0.1005,-0.357489 -0.15269,-0.535617 -0.18136,-0.620345 -0.36993,-1.238555 -0.56567,-1.854513 -0.0355,-0.111325 -0.0735,-0.221864 -0.10947,-0.333035 -0.16406,-0.507971 -0.33298,-1.014358 -0.50676,-1.519079 -0.0711,-0.206302 -0.14433,-0.411651 -0.21701,-0.617381 -0.14833,-0.420213 -0.30002,-0.839208 -0.45506,-1.256993 -0.0765,-0.206119 -0.15265,-0.412451 -0.23084,-0.617968 -0.19437,-0.510305 -0.39377,-1.018694 -0.59814,-1.525095 -0.0384,-0.09515 -0.0749,-0.1911 -0.11365,-0.286144 -0.24281,-0.595392 -0.4925,-1.187952 -0.74903,-1.77757 -0.0777,-0.178774 -0.15848,-0.356175 -0.23745,-0.534421 -0.18936,-0.428034 -0.38234,-0.854455 -0.57889,-1.279224 -0.0913,-0.197131 -0.18364,-0.393881 -0.27654,-0.590322 -0.19848,-0.41948 -0.40047,-0.837279 -0.60593,-1.253384 -0.0879,-0.178311 -0.17462,-0.357305 -0.26391,-0.535015 -0.2868,-0.571833 -0.58018,-1.140357 -0.88007,-1.70544 -0.0535,-0.100737 -0.10959,-0.200058 -0.16352,-0.300568 -0.25509,-0.47541 -0.51479,-0.948332 -0.77907,-1.418687 -0.10481,-0.186485 -0.2117,-0.372133 -0.318,-0.557863 -0.22173,-0.387336 -0.44656,-0.772881 -0.67449,-1.156608 -0.11597,-0.195238 -0.23166,-0.390535 -0.34926,-0.584907 -0.27286,-0.45086 -0.55001,-0.89913 -0.83138,-1.344751 -0.0624,-0.09899 -0.12281,-0.199362 -0.18575,-0.298162 -0.35086,-0.550005 -0.70816,-1.095887 -1.07184,-1.637513 -0.0996,-0.148546 -0.20174,-0.295668 -0.30237,-0.443641 -0.26149,-0.384936 -0.5262,-0.767665 -0.7941,-1.148177 -0.14157,-0.200866 -0.2846,-0.400822 -0.42802,-0.600543 -0.25118,-0.349426 -0.50507,-0.696885 -0.76164,-1.042385 -0.13321,-0.179559 -0.26503,-0.360035 -0.39977,-0.538618 -0.38799,-0.515536 -0.78198,-1.026538 -1.18184,-1.532917 -0.4167,-0.525668 -0.83973,-1.046296 -1.26901,-1.561758 -0.11727,-0.140871 -0.23643,-0.28015 -0.35467,-0.420199 l -0.006,-0.0059 c -0.31748,-0.377556 -0.63831,-0.75228 -0.96243,-1.124135 -0.004,-0.0059 -0.0105,-0.01167 -0.015,-0.01688 -0.16053,-0.183264 -0.32312,-0.364503 -0.48513,-0.546439 l -5.9e-4,-5.95e-4 c -0.28882,-0.325286 -0.58019,-0.648313 -0.87407,-0.969044 -0.18818,-0.20482 -0.37849,-0.407821 -0.56868,-0.610756 -0.12186,-0.130357 -0.24579,-0.258776 -0.36851,-0.388341 -0.15919,-0.169184 -0.31909,-0.337708 -0.4797,-0.505557 -0.006,-0.0059 -0.0105,-0.01049 -0.0163,-0.01614 -0.2034,-0.210543 -0.40821,-0.419773 -0.61375,-0.628196 -0.26984,-0.27359 -0.54156,-0.545309 -0.81515,-0.815143 -0.22056,-0.217572 -0.44193,-0.434124 -0.66488,-0.649238 l -0.002,-0.0022 c -0.2842,-0.273744 -0.57035,-0.545478 -0.85843,-0.815158 -0.21067,-0.197582 -0.42149,-0.394912 -0.6342,-0.590312 -0.32527,-0.29816 -0.6529,-0.59373 -0.98287,-0.8867 -0.17548,-0.15616 -0.35042,-0.31296 -0.5272,-0.46768 l -0.004,-0.004 c -0.38507,-0.33599 -0.77324,-0.66845 -1.16443,-0.99729 -0.13318,-0.11226 -0.26526,-0.22578 -0.39915,-0.33725 -0.49031,-0.40784 -0.98528,-0.81003 -1.48482,-1.2065 -0.0268,-0.0213 -0.0527,-0.0434 -0.0793,-0.0649 l -0.0169,-0.0133 c -0.53233,-0.42054 -1.06981,-0.83455 -1.61225,-1.24197 -0.0727,-0.0548 -0.14653,-0.1083 -0.21942,-0.1629 -14.40438,-10.76077 -31.90211,-16.5755 -49.88212,-16.57647 z" /></g><g
     id="layer3"
     style="display:inline"><g
       id="layer6"><circle
         style="opacity:1;fill:#213a53;fill-opacity:1;stroke:none;stroke-width:5.74144;stroke-linecap:round;stroke-linejoin:round;stroke-dasharray:none;stroke-opacity:1"
         id="path30241"
         cx="362.03687"
         cy="111.71001"
         r="7.8950877" /><path
         id="circle31349"
         style="opacity:1;fill:#2a4c6d;fill-opacity:1;stroke:none;stroke-width:5.74144;stroke-linecap:round;stroke-linejoin:round;stroke-dasharray:none;stroke-opacity:1"
         d="m 366.28199,105.05327 c -0.46628,0.16668 -0.93546,0.32115 -1.30488,0.41299 -1.38249,0.34375 -1.08634,0.66114 -4.06713,1.27877 -2.10483,0.43613 -4.40728,0.70733 -5.59276,0.83076 a 7.895087,7.895087 0 0 0 -1.02361,2.62281 c 0.82199,-0.25692 2.22685,-0.70866 2.85603,-0.98622 0.91304,-0.40283 2.6312,-1.07385 4.61839,-1.42296 1.49731,-0.26304 4.37837,-1.30206 5.70965,-1.79918 a 7.895087,7.895087 0 0 0 -1.19569,-0.93697 z m 1.79622,1.57427 c -0.88074,0.992 -5.98548,2.56634 -8.74015,3.23638 -2.81029,0.68359 -4.97503,0.87348 -4.97503,0.87348 -0.0579,-10e-4 -0.10954,0.004 -0.15784,0.0178 a 7.895087,7.895087 0 0 0 -0.0635,0.95478 7.895087,7.895087 0 0 0 0.98978,3.81909 l 2.6875,-0.34832 c 0,0 6.53212,-1.59503 9.45635,-2.81032 1.26343,-0.52506 2.02277,-1.44694 2.47863,-2.32494 a 7.895087,7.895087 0 0 0 -1.67575,-3.41795 z m 1.84842,4.80354 c -0.17549,0.20359 -0.42502,0.57034 -0.77319,1.16484 -1.97381,3.37016 -10.12394,4.87416 -10.12394,4.87416 0,0 -1.10899,0.21422 -1.84249,0.46581 a 7.895087,7.895087 0 0 0 1.01887,0.67291 c 1.30186,-0.18785 4.11448,-0.64011 5.95235,-1.27283 2.45713,-0.8459 4.41769,-2.21564 4.80711,-2.60501 0.22916,-0.22919 0.52561,-0.7434 0.73283,-1.13042 a 7.895087,7.895087 0 0 0 0.2338,-1.89056 7.895087,7.895087 0 0 0 -0.006,-0.2789 z" /></g><g
       id="layer5"
       transform="translate(-36.377601,-13.587828)"><circle
         style="display:inline;opacity:1;fill:#233f5a;fill-opacity:1;stroke-width:3.55957;stroke-linecap:round;stroke-linejoin:round"
         id="circle29802"
         cx="147.25717"
         cy="180.94151"
         r="16.744703" /><path
         id="path304"
         style="display:inline;opacity:1;fill:#192838;fill-opacity:1;stroke-width:3.55957;stroke-linecap:round;stroke-linejoin:round"
         d="m 149.15938,166.11253 c -1.88728,-0.0142 -3.64212,0.229 -5.36386,0.40559 -2.29564,0.23545 -3.7672,1.5893 -3.7672,1.5893 0,0 0,2.8254 -2.5311,2.8254 -2.53109,0 -4.06152,1.47157 -4.06152,1.47157 l -0.51782,-0.0929 a 16.744704,16.744704 0 0 0 -2.40509,8.62982 16.744704,16.744704 0 0 0 16.74461,16.74459 16.744704,16.744704 0 0 0 15.11299,-9.54036 c -0.68449,0.12067 -0.65367,0.12725 -0.93813,0.53621 -0.33298,0.47865 -1.43549,1.22807 -4.66118,2.24782 -3.22574,1.01973 -2.22718,1.76847 -1.64448,2.2055 0.5828,0.43703 2.12313,0.12476 0.41664,1.56079 -1.70649,1.43597 -2.53574,0.0322 -5.52297,-0.23269 -2.9873,-0.26489 -6.21003,0.41204 -8.97657,-1.91304 -2.76655,-2.32507 -0.80937,-3.39932 -0.33845,-3.13445 0.4709,0.26489 4.17922,-2.04547 6.13643,-3.06086 1.95715,-1.01538 2.1043,-2.57523 0.35318,-1.20667 -1.75119,1.36854 -4.2234,1.82476 -6.01871,2.67825 -1.79532,0.85351 -3.67893,-0.41205 -5.0622,-0.98595 -1.38325,-0.57391 -1.01535,-1.44213 -1.53044,-3.53176 -0.51501,-2.08963 1.07424,-6.59262 1.07424,-6.59262 0,0 2.11909,-2.28093 2.20737,-1.63344 0.0882,0.64749 0.60335,3.32574 1.54514,-0.73577 0.9418,-4.06155 4.53239,-1.88353 5.13576,-1.76589 0.60331,0.11764 2.19266,-0.22073 2.28094,-1.35384 0.0882,-1.13311 1.33915,-1.11839 2.29563,-0.89766 0.95655,0.2207 4.4,0.17656 5.56252,0.27961 1.16256,0.10304 3.97326,3.25216 3.97326,3.25216 0,0 1.83947,3.14915 2.23678,2.79596 0.39724,-0.35317 0.32373,-0.54446 0.32373,-2.13376 0,-1.58928 -4.82674,-3.70835 -4.82674,-3.70835 0,0 -3.47289,-2.35452 -0.82407,-1.64816 2.64882,0.70634 4.709,2.94314 4.709,2.94314 0,0 -0.76524,-2.2368 -2.35451,-3.41403 -1.58927,-1.17726 -4.17925,-2.1779 -6.82805,-2.47224 -0.66221,-0.0735 -1.30602,-0.10675 -1.93513,-0.11124 z" /></g></g></svg>
