<?xml version="1.0" encoding="UTF-8" standalone="no"?>
<!-- Created with Inkscape (http://www.inkscape.org/) -->

<svg
   width="100%"
   height="100%"
   viewBox="0 0 508 285.75"
   version="1.1"
   id="svg5"
   xml:space="preserve"
   xmlns:xlink="http://www.w3.org/1999/xlink"
   xmlns="http://www.w3.org/2000/svg"
   xmlns:svg="http://www.w3.org/2000/svg"><defs
     id="defs2"><linearGradient
       id="linearGradient487"><stop
         style="stop-color:#1a2c3e;stop-opacity:1;"
         offset="0"
         id="stop483" /><stop
         style="stop-color:#0f141a;stop-opacity:1;"
         offset="1"
         id="stop485" /></linearGradient><linearGradient
       xlink:href="#linearGradient487"
       id="linearGradient489"
       x1="254"
       y1="21.3125"
       x2="254"
       y2="244.75"
       gradientUnits="userSpaceOnUse" /><linearGradient
       xlink:href="#linearGradient487"
       id="linearGradient2"
       gradientUnits="userSpaceOnUse"
       x1="254"
       y1="21.3125"
       x2="254"
       y2="244.75" /></defs><g
     id="layer1"
     style="display:none;fill:url(#linearGradient489);fill-opacity:1"><rect
       style="fill:url(#linearGradient2);fill-opacity:1;stroke-width:2;stroke-linecap:round;stroke-linejoin:round"
       id="rect416"
       width="544.47217"
       height="312.09927"
       x="-22.848387"
       y="-13.611805" /></g><g
     id="layer7"
     transform="translate(-439.78969,170.81632)"
     style="display:inline;opacity:1"><circle
       style="display:inline;opacity:1;fill:#203850;fill-opacity:1;stroke:none;stroke-width:6.42806;stroke-linecap:round;stroke-linejoin:round;stroke-dasharray:none;stroke-opacity:1"
       id="path35186"
       cx="787.7005"
       cy="44.080311"
       r="92.120575" /><path
       id="circle5740"
       style="display:inline;opacity:1;fill:#243f5b;fill-opacity:1;stroke:none;stroke-width:6.42806;stroke-linecap:round;stroke-linejoin:round;stroke-dasharray:none;stroke-opacity:1"
       d="m 787.70072,-48.040494 c -30.20151,0.0099 -58.48,14.823014 -75.68381,39.6456259 8.35228,-2.7522359 4.29052,-2.9413379 9.79128,-8.4001629 0.0131,-0.04462 1.06448,0.197757 1.16463,0.210603 1.38675,0.177107 3.54698,0.523779 3.59749,2.281418 0.0661,2.301475 -4.67452,5.6957843 -3.33972,7.96832 0.0976,0.1660879 2.08529,-2.2572506 2.59234,-3.481246 -0.0116,0.06944 -0.0299,0.1545428 -0.0358,0.199314 -0.13609,1.0139674 -0.34419,2.1202299 0.0824,3.0978986 1.07753,2.4698393 3.84625,3.0729985 4.62859,0.2192492 1.00364,-3.6612431 1.11288,-6.7736878 2.91719,-10.3467358 1.74733,-3.46019 5.04192,-3.623598 7.31859,-5.949342 0.69767,-0.712686 1.0672,-1.832166 1.89674,-2.484029 1.46424,-1.150641 4.95622,-1.91957 6.76184,-2.175781 2.19817,-0.311903 2.56321,0.723668 4.58674,1.017795 0.9874,0.143531 1.81565,-0.447774 2.70062,-0.447774 0.53385,0 -1.98945,-0.931179 -2.26746,-1.878146 -0.0134,-0.04578 2.04787,0.09857 0.31956,-1.886108 -0.36959,-0.424402 -3.89647,0.734544 -3.89647,-0.720181 0,-2.455846 10.90729,1.011609 12.42087,-0.280342 1.04654,-0.8933 -7.2939,-1.252318 -5.36007,-4.5369 0.13735,-0.233299 3.10554,1.83948 3.33975,1.939258 0.15242,0.06499 -0.18862,-0.299951 -0.17473,-0.465048 1.6e-4,-0.0022 1.14603,-0.335456 1.25697,-0.377359 0.95019,-0.358523 1.54049,-1.534319 2.3711,-1.834298 1.34667,-0.486404 4.14749,0.101458 5.0923,-0.587964 1.08782,-0.793662 1.06191,-1.304506 2.62822,-1.52669 1.20325,-0.170673 2.85044,1.022178 3.88583,0.701556 2.16596,-0.670687 6.08138,-6.063533 8.61807,-4.62461 0.31794,0.180361 -1.91923,1.464908 -2.10337,1.851578 -0.64875,1.362343 -1.12569,2.994276 1.09288,1.89541 1.84859,-0.915624 10.39962,-4.766509 11.70999,-3.465962 0.59215,0.587701 -3.91948,1.614981 -4.17483,1.772515 -0.97562,0.60191 -3.12416,4.252513 -1.59779,4.888356 4.23572,1.764458 4.41019,-2.80733 7.13322,-4.484435 0.95025,-0.585219 1.9683,-0.683214 3.07135,-0.710844 0.45008,-0.01158 1.10157,-0.62515 1.33003,-0.237193 0.1495,0.253884 -1.3204,3.825111 0.37139,2.816893 2.20111,-1.311798 1.65485,-2.968342 5.23581,-2.114667 0.30075,0.07177 1.50543,0.06959 1.64961,0.192661 1.28904,1.100738 -6.40993,0.889013 -4.608,3.31781 3.41709,4.606071 3.69215,-2.172869 6.86549,-1.237694 3.20532,0.944622 1.14558,4.193481 2.7418,4.519642 1.01543,0.207496 5.10417,-5.294618 6.13337,-0.562043 1.00172,4.605983 -18.58551,6.842897 -6.56652,12.505218 5.06162,2.384615 5.38741,-1.607666 6.76252,-2.053541 0.69022,-0.223872 1.69156,0.2923 2.32923,-0.1488 0.6719,-0.464785 1.34701,-1.605759 2.21631,-1.605759 0.42572,0 -1.55653,-0.310883 -1.17527,-0.500262 0.84552,-0.420006 4.63759,-1.0069 5.88623,-1.334044 0.87474,-0.229186 2.8496,1.937991 3.77224,2.026968 0.016,0.0022 2.75694,-0.5543 2.80426,-0.473695 0.43089,0.734172 1.03934,0.931797 1.83428,1.149352 2.46687,0.675054 5.75669,-0.203957 8.10254,1.044364 2.01928,1.074519 3.09164,3.293382 4.56613,4.86178 0.2556,0.271855 3.28192,1.95016 3.5045,2.044909 0.2756,0.11737 1.31436,-0.32098 1.33005,-0.307609 0.68276,0.582789 0.44941,2.459122 1.11279,3.326451 0.30047,0.392842 2.53282,2.029424 2.50531,2.474069 -0.11085,1.7942791 -2.73138,2.6017913 -1.62901,4.36152 0.91408,1.4590945 5.81258,2.5900655 7.5046,4.3004052 1.60757,1.6248994 -0.42446,2.97331203 0.4325,4.6245971 0.60286,1.1615651 -3.49906,3.7792901 -3.89647,2.7644014 -0.38616,-0.9861445 2.74963,-4.26872602 0.88693,-6.3359908 -1.14401,-1.269621 -2.54936,-2.4762703 -4.21602,-2.8786666 -0.16022,-0.038681 -0.62813,-0.2007122 -0.57735,-0.1315473 0.004,0.00412 -2.51709,0.9552263 -2.79361,1.123431 -0.42884,0.2609265 -0.24794,1.9330748 -1.5772,2.57970285 -1.63976,0.79769273 -2.62223,-0.95450375 -3.88585,-0.26309125 -1.73834,0.95122957 -0.75605,2.8431607 -1.50476,3.8791978 -0.0262,0.036408 -12.88921,2.569283 -13.6167,2.5358586 -1.14088,-0.052462 -3.1294,-0.1272715 -4.03068,-0.9653125 -0.3367,-0.3131375 -2.1233,-3.0765742 -2.59764,-3.0188486 -1.14113,0.1388033 -1.18143,0.6640377 -1.38121,1.3426796 -0.1834,0.6230799 -1.33928,0.1612295 -1.87614,0.526832 -1.13763,0.7747852 -2.66415,2.3406622 -4.02004,2.3166206 -1.55864,-0.027651 -4.343,-3.1894396 -4.24659,0.052462 0.0848,2.848692 2.39533,3.4188959 3.19558,5.8882169 0.33967,1.048135 -2.33734,2.340581 -2.36113,3.361658 -0.0446,1.907037 2.99237,2.296997 3.9277,3.448686 0.44709,0.550574 -0.54618,2.123473 -0.23719,2.281411 2.15088,1.099341 2.43964,3.48087 4.29841,4.572127 1.59787,0.938084 4.13711,-5.651178 5.49424,-3.01885 0.53211,1.032032 0.17415,2.492764 -0.22655,3.51911 -0.078,0.19991 0.87414,1.044981 0.68031,1.254977 -0.35926,0.389221 -1.08259,0.22481 -1.1241,0.930096 -0.0891,1.51404 3.15202,10.858013 3.91706,11.750527 0.74001,0.863258 2.47191,1.148146 3.42212,1.649598 4.6277,2.442125 9.7607,1.568358 14.78199,1.878147 2.26673,0.139848 3.76938,0.997916 6.14332,0.684289 1.46525,-0.193572 3.3415,-1.215038 4.56681,-2.044231 1.18894,-0.804551 2.91287,-1.348599 3.62807,-2.694643 0.29413,-0.553509 0.98581,-2.525164 1.11347,-2.527224 0.94509,-0.01492 1.58594,-0.760554 1.95323,-1.450297 -0.0167,1.03456 0.15812,2.424505 0.18002,2.634849 0.16285,1.559617 -2.17871,3.843073 -3.2361,4.800658 -1.95875,1.773862 1.68155,1.758722 0.42255,3.773563 -0.93799,1.501067 -2.1886,3.980568 -3.39156,5.265048 -1.89144,2.019569 -4.02174,3.365057 -5.24644,6.002486 -1.19954,2.583369 0.41682,6.324386 0.10305,9.012694 -0.36119,3.093712 -2.66191,5.714111 -2.9172,8.757586 -0.0247,0.295473 3.35111,4.603791 3.68387,4.798664 3.18821,1.867052 10.33901,0.651282 14.61123,-1.504108 h 6.7e-4 c 7.4e-4,-0.002 7.4e-4,-0.0039 0.002,-0.006 0.22684,-0.561266 0.44351,-1.125679 0.65905,-1.690794 0.61006,-1.599215 1.17542,-3.21512 1.69544,-4.845836 0.15757,-0.494268 0.31126,-0.989539 0.46041,-1.486173 0.52063,-1.73658 0.98985,-3.48815 1.40711,-5.252423 0.0961,-0.40583 0.19304,-0.811382 0.28367,-1.218435 0.41798,-1.883464 0.77671,-3.779594 1.07562,-5.685586 0.0476,-0.301846 0.0983,-0.603187 0.14282,-0.905521 0.29908,-2.037479 0.52973,-4.084413 0.6916,-6.137352 0.0142,-0.177534 0.0321,-0.354508 0.0452,-0.532151 0.16424,-2.225605 0.24758,-4.456445 0.24979,-6.688104 2.9e-4,-0.790683 -0.01,-1.581337 -0.0299,-2.371763 v -0.0056 c -0.0193,-0.722459 -0.0473,-1.444669 -0.0837,-2.16648 -0.01,-0.208983 -0.0242,-0.417682 -0.0359,-0.626487 -0.0291,-0.52401 -0.063,-1.047768 -0.10105,-1.571214 -0.0169,-0.23047 -0.0345,-0.460705 -0.053,-0.690932 -0.044,-0.540545 -0.0927,-1.080682 -0.14615,-1.620367 -0.0185,-0.186863 -0.035,-0.37405 -0.0545,-0.560718 -0.075,-0.715584 -0.15816,-1.430261 -0.24981,-2.143892 -0.0163,-0.126655 -0.035,-0.252783 -0.0518,-0.379344 -0.0788,-0.59209 -0.16301,-1.183393 -0.25311,-1.773845 -0.0343,-0.223863 -0.0704,-0.447465 -0.10628,-0.671004 -0.0816,-0.507387 -0.16717,-1.014093 -0.25712,-1.520045 -0.0393,-0.221585 -0.078,-0.443146 -0.11891,-0.664364 -0.11159,-0.602843 -0.22918,-1.204565 -0.35277,-1.805064 -0.0223,-0.108165 -0.0424,-0.216809 -0.0651,-0.324872 -0.14891,-0.708706 -0.30615,-1.415632 -0.4717,-2.120634 -0.0413,-0.1768 -0.0858,-0.352968 -0.12817,-0.529492 -0.12407,-0.515538 -0.25245,-1.029995 -0.38532,-1.543311 -0.0644,-0.248367 -0.12963,-0.496303 -0.19601,-0.744078 -0.13251,-0.49409 -0.26916,-0.987062 -0.4099,-1.478871 -0.0564,-0.197267 -0.11108,-0.395085 -0.16875,-0.591945 -0.20043,-0.685582 -0.40883,-1.368805 -0.62515,-2.049538 -0.0392,-0.123033 -0.0812,-0.245196 -0.12099,-0.368058 -0.18132,-0.561391 -0.368,-1.121031 -0.56005,-1.678831 -0.0787,-0.227997 -0.15951,-0.454941 -0.23984,-0.682306 -0.16393,-0.464404 -0.33157,-0.927462 -0.50292,-1.389182 -0.0846,-0.227795 -0.1687,-0.455825 -0.25511,-0.682956 -0.21481,-0.563969 -0.43518,-1.125822 -0.66104,-1.6854773 -0.0425,-0.1051572 -0.0828,-0.2111967 -0.12559,-0.3162358 -0.26835,-0.658006 -0.5443,-1.3128815 -0.82781,-1.964505 -0.0859,-0.1975738 -0.17515,-0.3936314 -0.26242,-0.5906226 -0.20928,-0.4730468 -0.42256,-0.9443111 -0.63977,-1.4137506 -0.10093,-0.2178611 -0.20295,-0.4353021 -0.30562,-0.6524023 -0.21936,-0.4635928 -0.44259,-0.9253285 -0.66966,-1.3851936 -0.0971,-0.1970625 -0.19298,-0.3948803 -0.29166,-0.5912777 -0.31696,-0.631969 -0.64119,-1.2602806 -0.97262,-1.88478987 -0.0591,-0.11132913 -0.12111,-0.22109632 -0.18071,-0.33217701 -0.28192,-0.52540483 -0.56894,-1.04806014 -0.86101,-1.56787902 -0.11582,-0.2060976 -0.23396,-0.4112683 -0.35143,-0.6165303 -0.24506,-0.4280684 -0.49353,-0.8541594 -0.74542,-1.2782395 -0.12817,-0.2157699 -0.25602,-0.4316056 -0.38599,-0.6464186 -0.30156,-0.4982738 -0.60786,-0.993684 -0.91881,-1.486168 -0.069,-0.1094018 -0.13573,-0.2203276 -0.20529,-0.3295166 -0.38775,-0.6078461 -0.78264,-1.2111345 -1.18456,-1.8097205 -0.11007,-0.164165 -0.22296,-0.3267581 -0.33416,-0.4902971 -0.28899,-0.4254147 -0.58154,-0.8483907 -0.87761,-1.2689203 -0.15646,-0.2219876 -0.31453,-0.442978 -0.47304,-0.6636989 -0.27759,-0.3861754 -0.55818,-0.7701734 -0.84173,-1.1520024 -0.14722,-0.198448 -0.2929,-0.3979 -0.44182,-0.595264 -0.42879,-0.569752 -0.86421,-1.134488 -1.30612,-1.694121 -0.46052,-0.580947 -0.92804,-1.156324 -1.40247,-1.725997 -0.1296,-0.155684 -0.26129,-0.309609 -0.39195,-0.464385 l -0.007,-0.0066 c -0.35085,-0.417254 -0.70542,-0.831386 -1.06363,-1.242345 -0.004,-0.0066 -0.0116,-0.01288 -0.0165,-0.01864 -0.17741,-0.202532 -0.3571,-0.402836 -0.53615,-0.603904 l -6.4e-4,-6.55e-4 c -0.3192,-0.35949 -0.64121,-0.716492 -0.96599,-1.070953 -0.20798,-0.226355 -0.4183,-0.450707 -0.62848,-0.674981 -0.13468,-0.144068 -0.27165,-0.28599 -0.40727,-0.429185 -0.17594,-0.186977 -0.35265,-0.373218 -0.53015,-0.558717 -0.007,-0.0066 -0.0116,-0.01158 -0.0179,-0.01784 -0.22479,-0.23268 -0.45115,-0.463911 -0.6783,-0.694255 -0.29821,-0.302359 -0.59851,-0.602659 -0.90088,-0.900871 -0.24375,-0.240446 -0.48839,-0.479771 -0.73479,-0.71751 l -0.002,-0.0022 c -0.3141,-0.302527 -0.63034,-0.60284 -0.94871,-0.900876 -0.23283,-0.218363 -0.46582,-0.436442 -0.7009,-0.652395 -0.35947,-0.329517 -0.72155,-0.656166 -1.08623,-0.979947 -0.19393,-0.17258 -0.38727,-0.345872 -0.58263,-0.516864 l -0.004,-0.0043 c -0.42557,-0.371327 -0.85457,-0.738751 -1.2869,-1.102172 -0.14718,-0.124066 -0.29314,-0.249523 -0.44111,-0.372716 -0.54188,-0.45073 -1.08891,-0.895214 -1.64097,-1.333382 -0.0296,-0.02351 -0.0583,-0.04797 -0.0877,-0.07169 l -0.0186,-0.01471 c -0.5883,-0.464763 -1.1823,-0.922313 -1.7818,-1.372577 -0.0803,-0.06056 -0.16193,-0.119684 -0.24249,-0.180033 -15.91918,-11.892398 -35.25703,-18.318623 -55.12786,-18.3197 z" /></g><g
     id="layer3"
     style="display:inline"><g
       id="layer6"><circle
         style="opacity:1;fill:#213a53;fill-opacity:1;stroke:none;stroke-width:6.34523;stroke-linecap:round;stroke-linejoin:round;stroke-dasharray:none;stroke-opacity:1"
         id="path30241"
         cx="454.04193"
         cy="133.94679"
         r="8.725358" /><path
         id="circle31349"
         style="opacity:1;fill:#2a4c6d;fill-opacity:1;stroke:none;stroke-width:6.34523;stroke-linecap:round;stroke-linejoin:round;stroke-dasharray:none;stroke-opacity:1"
         d="m 458.73347,126.59002 c -0.51531,0.18421 -1.03383,0.35492 -1.4421,0.45641 -1.52788,0.37991 -1.20059,0.73068 -4.49484,1.41326 -2.32618,0.482 -4.87076,0.78172 -6.18092,0.91813 a 8.7253571,8.7253571 0 0 0 -1.13125,2.89863 c 0.90842,-0.28394 2.46103,-0.78319 3.15638,-1.08994 1.00907,-0.44519 2.90791,-1.18678 5.10408,-1.5726 1.65476,-0.2907 4.8388,-1.43899 6.31009,-1.98839 a 8.7253571,8.7253571 0 0 0 -1.32144,-1.0355 z m 1.98512,1.73982 c -0.97336,1.09633 -6.61493,2.83623 -9.6593,3.57673 -3.10581,0.75547 -5.4982,0.96534 -5.4982,0.96534 -0.0639,-8.7e-4 -0.12107,0.004 -0.17445,0.0196 a 8.7253571,8.7253571 0 0 0 -0.0703,1.05519 8.7253571,8.7253571 0 0 0 1.09386,4.22072 l 2.97012,-0.38496 c 0,0 7.21907,-1.76276 10.45081,-3.10585 1.3963,-0.58029 2.2355,-1.59911 2.73929,-2.56944 a 8.7253571,8.7253571 0 0 0 -1.85197,-3.77739 z m 2.04281,5.3087 c -0.19395,0.225 -0.46972,0.63032 -0.85451,1.28734 -2.18137,3.72457 -11.1886,5.38673 -11.1886,5.38673 0,0 -1.22561,0.23676 -2.03626,0.51481 a 8.7253571,8.7253571 0 0 0 1.12603,0.74367 c 1.43877,-0.20761 4.54717,-0.70742 6.57831,-1.40668 2.71553,-0.93486 4.88227,-2.44865 5.31264,-2.87896 0.25326,-0.2533 0.58089,-0.82158 0.8099,-1.24931 a 8.7253571,8.7253571 0 0 0 0.25839,-2.08937 8.7253571,8.7253571 0 0 0 -0.007,-0.30823 z" /></g><g
       id="layer5"
       transform="translate(-36.377601,-13.587828)"><circle
         style="display:inline;opacity:1;fill:#233f5a;fill-opacity:1;stroke-width:3.93391;stroke-linecap:round;stroke-linejoin:round"
         id="circle29802"
         cx="227.62621"
         cy="246.98428"
         r="18.505625" /><path
         id="path304"
         style="display:inline;opacity:1;fill:#192838;fill-opacity:1;stroke-width:3.93391;stroke-linecap:round;stroke-linejoin:round"
         d="m 229.72844,230.59584 c -2.08574,-0.0157 -4.02513,0.25308 -5.92792,0.44825 -2.53707,0.2602 -4.16338,1.75643 -4.16338,1.75643 0,0 0,3.12253 -2.79727,3.12253 -2.79728,0 -4.48865,1.62632 -4.48865,1.62632 l -0.57228,-0.10272 a 18.505626,18.505626 0 0 0 -2.658,9.53736 18.505626,18.505626 0 0 0 18.50551,18.5055 18.505626,18.505626 0 0 0 16.70232,-10.54365 c -0.75648,0.13337 -0.72242,0.14064 -1.03679,0.5926 -0.368,0.52899 -1.58645,1.35721 -5.15136,2.48421 -3.56498,1.12697 -2.4614,1.95444 -1.81742,2.43744 0.6441,0.48299 2.34641,0.13788 0.46046,1.72491 -1.88595,1.58699 -2.80241,0.0355 -6.10379,-0.25715 -3.30145,-0.29274 -6.86309,0.45537 -9.92057,-2.11421 -3.05749,-2.56959 -0.89448,-3.75682 -0.37404,-3.46408 0.52042,0.29275 4.61872,-2.26059 6.78176,-3.38275 2.16297,-1.12217 2.32559,-2.84605 0.39031,-1.33357 -1.93534,1.51246 -4.66754,2.01665 -6.65165,2.9599 -1.98412,0.94327 -4.06581,-0.45538 -5.59455,-1.08964 -1.52873,-0.63426 -1.12214,-1.59379 -1.6914,-3.90317 -0.56916,-2.30938 1.18721,-7.28592 1.18721,-7.28592 0,0 2.34195,-2.5208 2.43952,-1.80521 0.0975,0.71558 0.66679,3.67548 1.70762,-0.81315 1.04085,-4.48867 5.00904,-2.08161 5.67585,-1.95159 0.66677,0.13001 2.42325,-0.24395 2.52081,-1.49622 0.0975,-1.25227 1.47999,-1.236 2.53705,-0.99206 1.05714,0.24391 4.86272,0.19513 6.14749,0.30902 1.28481,0.11387 4.3911,3.59416 4.3911,3.59416 0,0 2.03291,3.48033 2.472,3.08999 0.43902,-0.39031 0.35779,-0.60171 0.35779,-2.35814 0,-1.75642 -5.33434,-4.09834 -5.33434,-4.09834 0,0 -3.83811,-2.60213 -0.91073,-1.82149 2.92737,0.78064 5.20421,3.25265 5.20421,3.25265 0,0 -0.84571,-2.47201 -2.60212,-3.77306 -1.7564,-1.30107 -4.61875,-2.40693 -7.54611,-2.73222 -0.73184,-0.0812 -1.44336,-0.11798 -2.13864,-0.12294 z" /></g></g></svg>
