<?xml version="1.0" encoding="UTF-8" standalone="no"?>
<!-- Created with Inkscape (http://www.inkscape.org/) -->

<svg
   width="100%"
   height="100%"
   viewBox="0 0 508 285.75"
   version="1.1"
   id="svg24312"
   xml:space="preserve"
   xmlns="http://www.w3.org/2000/svg"
   xmlns:svg="http://www.w3.org/2000/svg"><defs
     id="defs24309" /><g
     id="layer7"
     transform="matrix(0.35965177,0,0,0.35965177,230.49088,139.45505)"
     style="display:inline"><g
       id="layer5"
       style="fill:#d6ab7f;fill-opacity:1;stroke:none"
       transform="translate(-2.0688076,-16.919222)"><path
         style="fill:#c8c9cb;fill-opacity:1;stroke:none;stroke-width:0.661549px;stroke-linecap:butt;stroke-linejoin:miter;stroke-opacity:1"
         d="m 237.94586,214.77529 c 0.49356,-23.87514 1.02371,-39.94441 2.2594,-43.44964 1.58287,-2.67796 2.03856,0.28824 2.85325,2.43575 -0.8602,1.22892 -0.79873,15.11597 0.12302,25.00895 0.92174,9.89295 0.73737,17.45095 0.73737,17.45095 z"
         id="path9268" /></g><g
       id="layer8"
       style="display:inline"><path
         id="path6776"
         style="display:inline;fill:#75787b;fill-opacity:1;stroke:none;stroke-width:0.741914px;stroke-linecap:butt;stroke-linejoin:miter;stroke-opacity:1"
         d="m 242.68575,76.427737 c -7.98583,1.551241 -19.69005,9.996057 -20.55583,14.395181 -0.16651,1.897695 0.0225,3.257379 0.8929,4.747127 2.31584,4.024592 9.16819,10.131615 4.52755,14.560555 -7.38937,4.873 -11.58147,6.7394 -17.74091,12.40015 -3.02164,2.77702 -4.63311,7.2295 0.0272,9.84961 2.08877,0.91227 4.47733,1.33738 6.47338,1.94973 1.73887,0.53851 1.54678,0.78874 1.50712,1.58153 -8.56775,5.12148 -15.33318,0.6841 -14.60739,13.72472 0.6066,2.63963 6.11619,5.06145 7.98625,5.3566 22.66963,-1.37701 7.02024,-2.69964 -4.62304,7.90693 -1.62907,2.04712 -3.38798,4.32641 -3.86593,6.83387 -0.41421,3.3707 0.86249,5.82702 1.40178,7.50575 4.08211,1.27791 3.89285,-0.19276 11.64827,-3.93799 4.2899,-2.06082 12.95361,2.50177 17.69704,4.79859 6.14946,2.97763 8.18924,1.4593 11.96486,2.61556 2.81222,0.86123 11.52307,-0.65006 14.09079,-0.19968 9.86003,-3.68088 3.86058,-13.88174 5.3341,-28.02546 -0.96097,-1.93177 -2.17837,-2.98207 -3.59975,-4.17085 2.98423,0.36731 5.86141,-1.09628 7.56647,-3.14239 0.46521,-2.42776 0.36032,-4.95578 -0.0303,-7.34681 -1.72011,-4.82607 -3.06782,-9.86809 -5.41909,-14.34735 -2.72902,-4.58613 -2.5049,-10.43772 -3.35817,-14.8784 -2.59086,-7.13647 -3.92716,-15.553926 -7.04323,-21.798841 -3.09976,-4.294265 -4.99377,-10.404977 -10.2734,-10.378053 z" /><path
         id="path6890"
         style="display:inline;fill:#5e6165;fill-opacity:1;stroke:none;stroke-width:0.661549px;stroke-linecap:butt;stroke-linejoin:miter;stroke-opacity:1"
         d="m 244.40588,76.664492 c -0.14724,0.126819 -0.2901,0.258105 -0.42149,0.392941 -4.57162,4.715476 -2.95924,10.527793 -3.07733,16.669399 -0.11327,5.891292 -6.02197,10.331208 -5.30135,13.208268 0.44635,1.78206 5.4887,2.49532 7.34148,4.39324 2.80136,3.10586 3.95232,6.15803 4.75192,8.58201 2.30862,8.46278 -5.45864,10.72738 -9.97368,11.83865 -4.20299,0.221 -14.52621,0.57908 -13.18315,5.46357 2.83156,1.7479 9.50014,2.90586 12.29559,3.66103 2.61559,1.1327 6.38945,0.28984 7.79611,2.71179 1.94904,3.3558 1.92372,7.99351 1.93997,11.7473 0.006,1.2774 -5.18812,0.71969 -10.19,0.14919 -5.00186,-0.57051 -9.31879,-4.13466 -10.07315,-0.44446 -0.36921,1.80607 20.43387,7.25609 20.88983,10.31425 0.41141,2.75927 -2.02696,15.78116 0.0693,15.76329 2.92721,-0.025 9.59398,-0.0755 10.66169,-0.69067 15.69728,1.86352 8.43178,-20.50771 7.96867,-22.16953 -0.0855,-0.36386 -0.1434,-0.73514 -0.18847,-1.11143 -4e-5,-3.8e-4 5e-5,-7.7e-4 0,-0.001 -0.18037,-1.50674 -0.15493,-3.09714 -0.86814,-4.6514 -0.96068,-1.9312 -2.17738,-2.98215 -3.59821,-4.17049 -2.3e-4,-1.9e-4 -9.2e-4,1.9e-4 -0.001,0 -1.9e-4,-1.6e-4 2e-4,-9.8e-4 0,-0.001 0.18651,0.023 0.37202,0.039 0.55744,0.048 0.18542,0.009 0.37021,0.0113 0.55401,0.007 0.3676,-0.009 0.73173,-0.044 1.08974,-0.10279 2.1481,-0.35257 4.34462,-1.37621 5.36532,-3.09331 0.47347,-0.79649 0.2689,-1.83519 0.29814,-2.76091 10e-6,-3.8e-4 -1e-5,-7.6e-4 0,-0.001 0.0102,-0.3087 0.0122,-0.61666 0.008,-0.92526 -0.008,-0.61716 -0.0441,-1.23361 -0.10165,-1.84478 -0.0575,-0.61118 -0.13766,-1.21734 -0.23531,-1.8151 -1.07508,-3.0163 -2.00411,-6.11714 -3.12416,-9.11202 -0.67204,-1.79695 -1.41313,-3.55539 -2.29486,-5.23512 -0.17057,-0.28663 -0.329,-0.57799 -0.47748,-0.87385 -1.5e-4,-3e-4 1.6e-4,-8.3e-4 0,-10e-4 -0.44526,-0.88727 -0.7963,-1.81295 -1.07831,-2.75977 -1.1e-4,-3.5e-4 1e-4,-7.9e-4 0,-0.001 -0.56393,-1.89402 -0.85457,-3.87196 -1.08403,-5.79254 -0.0766,-0.64031 -0.14623,-1.27497 -0.21704,-1.89733 -0.14162,-1.24472 -0.28815,-2.44235 -0.50146,-3.55252 -0.64772,-1.78412 -1.21625,-3.64868 -1.75456,-5.53896 -0.53829,-1.89027 -1.04579,-3.806916 -1.5695,-5.695429 -0.52372,-1.888525 -1.06378,-3.7487 -1.66774,-5.527537 -0.30198,-0.889418 -0.6197,-1.758087 -0.95952,-2.599842 -1.3e-4,-3.28e-4 1.3e-4,-8.14e-4 0,-0.0011 -0.3397,-0.841416 -0.70267,-1.65619 -1.09203,-2.436498 -0.32533,-0.450702 -0.63489,-0.924643 -0.93896,-1.40616 -0.0286,-0.04534 -0.0584,-0.08933 -0.0869,-0.134791 -0.18469,-0.295059 -0.3634,-0.596315 -0.54373,-0.896701 -0.24251,-0.403774 -0.48673,-0.802878 -0.72649,-1.207387 -0.22616,-0.381803 -0.45318,-0.758325 -0.68194,-1.132009 -0.2672,-0.436149 -0.53643,-0.869177 -0.81446,-1.281647 -7.7e-4,-0.0011 -0.001,-0.0023 -0.002,-0.0034 -0.16169,-0.239808 -0.32601,-0.474359 -0.49347,-0.702508 -0.10403,-0.141769 -0.21193,-0.275938 -0.31869,-0.412369 -0.0727,-0.09295 -0.14407,-0.188447 -0.21818,-0.278719 -0.10392,-0.126401 -0.21182,-0.244954 -0.3187,-0.365531 -0.0879,-0.09917 -0.17487,-0.199767 -0.26502,-0.294709 -0.10041,-0.105616 -0.20388,-0.205059 -0.30727,-0.304987 -0.10075,-0.09748 -0.20223,-0.193921 -0.30613,-0.285572 -0.10901,-0.09612 -0.22082,-0.187181 -0.33355,-0.276435 -0.10358,-0.0821 -0.20956,-0.159454 -0.31641,-0.23532 -0.11487,-0.08153 -0.23061,-0.161365 -0.34954,-0.235307 -0.1115,-0.06932 -0.22631,-0.131874 -0.34155,-0.194193 -0.12786,-0.06909 -0.25558,-0.138749 -0.38837,-0.198749 -0.11591,-0.05236 -0.23767,-0.09431 -0.35754,-0.139359 -0.13381,-0.05032 -0.26536,-0.105391 -0.40437,-0.146213 -0.0129,-0.0034 -0.027,-0.0057 -0.04,-0.009 z" /></g></g><g
     id="layer6"
     style="display:inline"><path
       style="fill:#5e6165;fill-opacity:1;stroke:none;stroke-width:0.886399px;stroke-linecap:butt;stroke-linejoin:miter;stroke-opacity:1"
       d="m 13.059724,290.28946 c 0.6554,-1.82404 0.742539,-2.79489 1.876233,-4.14605 1.425066,-1.69854 3.936367,-2.7789 5.987839,-3.43243 1.301742,-0.4147 2.619744,-0.78406 3.951927,-1.08746 0.760519,-0.17319 1.542952,-0.23083 2.315276,-0.33983 1.9554,-0.27606 3.912632,-0.53935 5.868066,-0.81564 5.024286,-0.70988 10.052563,-1.46097 15.049382,-2.34489 3.575031,-0.63246 7.333908,-1.23574 10.778082,-2.41289 2.06398,-0.70542 3.96966,-1.46779 5.94795,-2.37888 1.34335,-0.61872 2.65326,-1.308 3.9918,-1.93709 1.42348,-0.66905 2.86147,-1.3078 4.27129,-2.00508 1.1995,-0.59324 2.35926,-1.26404 3.55279,-1.86912 1.38581,-0.70258 2.80598,-1.33588 4.19151,-2.03904 2.534312,-1.28621 4.962722,-2.7686 7.504732,-4.0441 1.90354,-0.95518 3.93189,-1.66437 5.86805,-2.54882 0.53902,-0.24625 1.05869,-0.53331 1.59677,-0.78163 1.86853,-0.86248 3.7922,-1.59804 5.708409,-2.34493 2.58722,-1.0084 5.18526,-1.98721 7.82408,-2.85467 5.00276,-1.64459 10.14644,-2.84534 15.20903,-4.28199 3.49179,-0.99089 6.91994,-2.21491 10.25911,-3.63632 2.29522,-0.97698 1.47356,-0.68103 3.99189,-1.9031 2.13516,-1.03611 4.33282,-1.9744 6.5068,-2.92262 0.40296,-0.1759 4.24648,-1.84374 5.34908,-2.27696 2.62277,-1.03054 5.32443,-1.85057 8.02368,-2.65075 2.84146,-0.84234 5.669,-1.71725 8.54262,-2.44686 5.60755,-1.42378 11.26214,-2.6552 16.88564,-4.01013 3.38197,-0.81486 6.71735,-1.79326 10.05951,-2.75271 2.59095,-0.74381 5.13873,-1.40429 7.78419,-1.97108 0.58565,-0.12535 2.90091,-0.57832 3.67253,-0.64571 0.51714,-0.0453 1.03796,-0.02 1.55686,-0.0339 3.07936,-0.0854 1.08658,-0.0681 3.75234,-0.0681 2.45099,0 4.90843,-0.10821 7.34506,0.20403 1.86098,0.23853 3.69061,0.69101 5.54868,0.95157 1.30077,0.18224 2.27805,0.25662 3.59278,0.33983 3.40748,0.21608 6.80583,0.23585 10.21918,0.2717 2.93968,0.0302 5.88341,0.092 8.822,-0.0339 3.72253,-0.1598 7.41962,-0.54745 11.09747,-1.12147 3.05125,-0.47623 6.42341,-0.83593 9.38085,-1.6992 0.73015,-0.21307 1.43536,-0.50349 2.15564,-0.74765 2.15688,-0.73109 4.30402,-1.4958 6.46683,-2.20899 2.52404,-0.83224 5.0681,-1.64762 7.62456,-2.37889 1.6821,-0.48116 3.38889,-0.87362 5.06968,-1.35936 2.67455,-0.7729 5.31981,-1.635 8.02371,-2.31092 1.4277,-0.35693 2.87474,-0.63153 4.31117,-0.95154 3.26373,-0.7271 6.52452,-1.46491 9.82005,-2.03907 1.55104,-0.27035 4.55444,-0.73489 6.42688,-0.95154 1.9232,-0.22245 2.18542,-0.16751 4.11163,-0.47579 2.42432,-0.38805 4.83213,-0.91681 7.22533,-1.46131 0.55947,-0.12728 3.78961,-0.87212 4.59068,-1.0875 2.76341,-0.7429 5.54629,-1.51429 8.26319,-2.41286 3.68752,-1.2196 7.27751,-2.68976 10.97761,-3.87419 1.57956,-0.50564 3.19769,-0.89716 4.79031,-1.35937 3.33505,-0.96791 6.69923,-1.86905 10.09945,-2.58281 2.15768,-0.45294 4.34256,-0.79825 6.50672,-1.2234 2.51507,-0.49413 4.96011,-1.23622 7.50481,-1.59727 3.38975,-0.48097 6.91817,-0.61171 10.33896,-0.61171 1.75639,0 3.51714,-0.0905 5.26922,0.0338 1.66447,0.11793 3.34055,0.51364 4.98987,0.74765 1.4094,0.20002 2.82197,0.37772 4.23141,0.57775 1.37101,0.19462 2.70956,0.439 4.0717,0.67968 1.03859,0.18357 2.11714,0.31324 3.11365,0.67969 1.07635,0.39567 2.03995,1.04286 3.07376,1.52924 1.56143,0.73464 2.90769,1.17674 4.0717,2.54881 1.23263,1.453 1.02858,2.44359 1.39713,4.24803 0.12625,0.6183 0.33401,1.23143 0.519,1.83515 0.30553,0.99739 1.15585,2.26986 1.95601,2.92263 0.74672,0.60923 1.6784,0.99476 2.5149,1.46132 0.72278,0.40315 1.43993,0.81497 2.19549,1.15546 1.4577,0.65697 2.97485,1.02777 4.51081,1.42735 1.77077,0.46061 3.53382,0.9525 5.3092,1.39333 1.65001,0.4097 3.33365,0.67584 4.98991,1.0535 2.33708,0.53295 4.58438,1.31962 6.86595,2.03906 1.21064,0.38172 2.41845,0.78629 3.63267,1.15546 0.86095,0.26166 2.03293,0.5538 2.91403,0.84961 0.99109,0.33268 1.96444,0.71649 2.95403,1.05349 2.31409,0.78804 4.64745,1.50948 6.94591,2.34493 3.13547,1.1397 -0.14704,-0.0133 3.15356,1.25739 0.56685,0.21844 1.1498,0.39291 1.71649,0.61173 1.81269,0.7 3.58914,1.44327 5.42893,2.07302 3.75675,1.28591 7.58599,2.35572 11.37687,3.53435 2.6358,0.81953 5.25794,1.66165 7.94382,2.31091 1.68949,0.40842 3.39713,0.60095 5.10968,0.88361 2.2003,0.36316 4.37828,0.83621 6.58654,1.15544 2.72712,0.39429 5.49995,0.51935 8.18334,1.18948 3.70234,0.92454 6.96394,2.82439 9.78009,5.36949 0.7791,0.70402 1.92334,1.82484 2.55481,2.65076 2.35712,3.08264 3.24067,6.18882 3.99192,9.95736 0.70009,3.51222 1.06173,7.02937 1.23747,10.60303 0.20034,4.07593 0.19967,4.70653 0.19967,9.2097 0,3.61366 0.0763,7.22914 -0.0398,10.84096 -0.10947,3.40331 -0.38992,6.79924 -0.63863,10.19522 -0.41485,5.66321 -1.08534,11.61213 -2.03591,17.19598 -0.86575,5.08567 -2.8925,13.9059 -3.87213,18.31745 -3.16313,14.24457 -6.61086,29.99632 -18.00334,40.16924 -6.37692,5.6943 -15.55791,7.48176 -23.71183,8.76792 -5.89058,0.92915 -11.09939,1.64768 -17.00531,2.10704 -9.89454,0.76952 -19.86344,0.81116 -29.77941,0.78161 -10.86806,-0.0336 -13.00623,-0.21943 -24.90937,-0.78161 -4.5666,-0.21576 -19.03624,-0.96778 -23.39246,-1.25743 -20.5454,-1.3661 -41.02887,-3.48163 -61.55474,-5.09762 -12.45621,-0.9807 -19.96783,-1.45605 -32.93295,-2.34493 -14.34124,-0.98317 -28.683,-1.898 -43.03252,-2.7527 -6.2407,-0.37171 -12.4791,-0.78489 -18.72195,-1.12148 -13.86754,-0.74775 -33.10642,-1.33268 -45.42755,-1.69921 -17.59824,-0.52349 -35.20844,-0.58931 -52.81253,-0.74764 -9.48882,-0.0854 -18.97315,-0.34266 -28.46214,-0.40782 -2.39504,-0.0168 -4.79055,0.008 -7.18531,-0.0338 -8.755259,-0.1501 -6.973259,-0.17556 -14.370789,-0.54373 -4.41623,-0.21979 -6.724412,-0.28243 -10.857892,-0.54375 -4.61999,-0.29213 -9.2385,-0.70055 -13.81196,-1.42734 -2.53812,-0.40337 -5.10053,-0.73882 -7.544584,-1.56329 -3.540033,-1.1941 -6.710341,-3.26578 -9.97974,-5.02964 -4.92395,-2.6565 -1.840861,-0.98758 -5.708396,-2.92264 -1.73053,-0.86585 -3.634874,-1.71673 -5.149477,-2.95663 -2.318997,-1.89823 -4.808077,-4.75889 -6.466925,-7.27258 -0.928013,-1.40641 -1.684935,-2.92935 -2.395134,-4.45194 -1.456887,-3.12384 -2.182577,-6.47892 -3.313195,-9.71945 -0.846685,-2.42669 -1.874988,-4.78742 -2.554825,-7.27261 -0.511053,-1.86834 -0.717322,-3.79807 -0.99793,-5.70933 -0.09815,-0.6696 -0.221116,-1.33549 -0.319269,-2.00504 -0.145116,-0.98779 -0.141701,-1.42232 -0.359278,-2.37891 -0.292797,-1.28719 -0.779651,-2.53396 -1.117749,-3.80624 -0.214422,-0.8074 -0.227811,-1.66017 -0.359243,-2.48083 -0.14169,-0.88361 -0.312904,-1.76388 -0.439135,-2.65076 -0.188606,-1.32511 -0.266009,-2.65762 -0.518867,-3.97615 -0.23386,-1.21886 -0.585844,-2.44767 -1.037881,-3.60231 -0.173216,-0.44246 -0.296167,-0.60276 -0.399251,-1.01953 -0.07169,-0.29079 -0.326303,-1.63175 -0.279409,-1.83516 0.140649,-0.60875 0.345968,-1.20077 0.518912,-1.80116 z"
       id="path383" /><path
       id="path387"
       style="fill:#75787b;fill-opacity:1;stroke:none;stroke-width:0.886399px;stroke-linecap:butt;stroke-linejoin:miter;stroke-opacity:1"
       d="m 393.88667,192.55543 c -0.87874,0.008 -1.75851,0.0302 -2.63669,0.0302 -3.42078,0 -6.94926,0.12996 -10.33904,0.61112 -2.5447,0.36105 -4.98989,1.10385 -7.50496,1.59794 -2.16415,0.4252 -4.34837,0.77104 -6.50605,1.22402 -3.40022,0.71371 -6.76507,1.61507 -10.10013,2.58302 -1.5926,0.46218 -3.21082,0.85339 -4.79034,1.35902 -3.70011,1.18444 -7.28864,2.65492 -10.97615,3.87456 -2.71693,0.89853 -5.49986,1.66866 -8.26326,2.41161 -0.80104,0.21542 -4.03178,0.96167 -4.59126,1.08894 -2.39321,0.54451 -4.80193,1.07313 -7.22625,1.46119 -1.92624,0.30821 -2.1868,0.25193 -4.11001,0.47438 -1.87244,0.21674 -4.87707,0.68195 -6.42811,0.95218 -3.29554,0.57416 -6.55592,1.3123 -9.81967,2.0394 -1.43642,0.31993 -2.88308,0.59354 -4.3108,0.95047 -2.70389,0.67592 -5.34981,1.53832 -8.02436,2.31121 -1.68076,0.48571 -3.38696,0.87784 -5.06908,1.35903 -2.55646,0.73126 -5.10037,1.54822 -7.62444,2.38047 -2.1628,0.71318 -4.31108,1.47801 -6.46794,2.20908 -0.72031,0.24422 -1.42527,0.53308 -2.1554,0.74617 -2.95747,0.86325 -6.32869,1.22387 -9.37992,1.70009 -3.67786,0.57402 -7.37479,0.96207 -11.09731,1.12184 -2.93859,0.12595 -5.88279,0.064 -8.82247,0.0336 -3.41335,-0.0362 -6.81207,-0.0558 -10.21956,-0.2717 -1.31472,-0.0834 -2.29161,-0.15712 -3.59237,-0.33931 -1.85808,-0.26065 -3.68768,-0.71368 -5.54866,-0.95218 -2.43662,-0.31223 -4.8947,-0.20268 -7.3457,-0.20268 -2.66577,0 -0.67227,-0.0167 -3.75162,0.0676 -0.51891,0.0134 -1.03925,-0.0133 -1.55638,0.0336 -0.77163,0.0674 -3.08808,0.52028 -3.67371,0.64576 -2.64547,0.56677 -5.19276,1.22809 -7.78372,1.97187 -3.34215,0.95949 -6.67831,1.93784 -10.06029,2.75271 -5.62349,1.35494 -11.27735,2.5858 -16.8849,4.00958 -2.87358,0.72964 -5.70051,1.60564 -8.54197,2.44798 -2.69928,0.80019 -5.40156,1.62001 -8.02433,2.65055 -1.1026,0.43322 -4.94665,2.1008 -5.34962,2.27658 -2.17395,0.94823 -4.37086,1.88625 -6.50603,2.92236 -2.51827,1.22204 -1.697,0.92566 -3.99222,1.90262 -3.33915,1.42143 -6.76762,2.64648 -10.2594,3.6374 -5.06259,1.43661 -10.20633,2.63682 -15.20904,4.28135 -2.63882,0.86747 -5.23628,1.84645 -7.82352,2.85486 -1.916209,0.74687 -3.839409,1.48164 -5.707929,2.3441 -0.53808,0.24824 -1.05895,0.53628 -1.59797,0.78251 -1.93617,0.88448 -3.96366,1.59328 -5.86719,2.54839 -2.54202,1.27553 -4.97069,2.75802 -7.504992,4.04421 -1.38549,0.70318 -2.80555,1.33687 -4.19134,2.03942 -1.19354,0.6051 -2.35303,1.27652 -3.55252,1.86978 -1.40984,0.69726 -2.84752,1.33573 -4.27102,2.00476 -1.33852,0.62914 -2.6489,1.31857 -3.99226,1.93728 -1.97828,0.91108 -3.8846,1.6733 -5.94857,2.37873 -3.444183,1.17715 -7.201997,1.7792 -10.77704,2.41165 -4.996818,0.8839 -10.025458,1.636 -15.049755,2.34583 -1.955423,0.27639 -3.913548,0.53934 -5.868947,0.81543 -0.772313,0.10913 -1.55417,0.16616 -2.314689,0.33931 -1.332205,0.30353 -2.650694,0.67251 -3.952447,1.08724 -2.051484,0.65351 -4.561586,1.73456 -5.986663,3.43307 -1.133694,1.35117 -1.221263,2.32229 -1.876663,4.14635 -0.172876,0.60038 -0.37867,1.19172 -0.519376,1.8005 -0.04693,0.20334 0.208723,1.54414 0.280416,1.83512 0.103242,0.41675 0.225131,0.57726 0.398188,1.01972 0.449934,1.14921 0.801431,2.37216 1.035314,3.58539 1.198183,0.52723 2.397916,1.05186 3.595782,1.58064 1.637623,0.72291 3.250063,1.50389 4.909838,2.17447 1.127497,0.45552 3.542747,1.17969 4.59128,1.46114 3.340832,0.89685 6.817382,1.2191 10.257657,1.42832 1.690182,0.10279 3.378001,0.24289 5.070829,0.30452 1.064048,0.0388 2.128638,0.0235 3.192426,0.0693 1.065518,0.0459 2.04514,0.18794 3.114525,0.2717 1.795754,0.14065 3.595069,0.13738 5.389376,0.30486 1.885059,0.1759 3.700279,0.59339 5.548659,0.98681 3.08496,0.65658 7.01534,1.32794 10.13821,1.01968 0.48316,-0.0477 0.95576,-0.17319 1.43693,-0.23887 0.51719,-0.0704 1.03921,-0.11285 1.55812,-0.16952 0.71852,-0.10188 1.43663,-0.20635 2.1554,-0.30653 4.06192,-0.56584 8.090652,-1.25588 12.014912,-2.48087 1.95495,-0.61023 3.92864,-1.27631 5.82911,-2.03768 1.91524,-0.76728 3.71737,-1.78803 5.58848,-2.65227 1.379699,-0.6373 4.655569,-2.05778 5.668129,-2.58129 1.01414,-0.52437 1.98873,-1.12423 2.9535,-1.73474 0.54043,-0.34201 1.03059,-0.75603 1.5564,-1.12009 1.66209,-1.15085 3.39537,-2.20027 5.07083,-3.33096 2.03315,-1.37203 0.73476,-0.59283 2.7146,-1.86972 1.74437,-1.12505 1.1319,-0.6557 3.19242,-1.90266 1.58098,-0.95674 3.10281,-2.01302 4.67092,-2.98986 2.06106,-1.28386 0.81644,-0.42484 2.91368,-1.70009 2.66469,-1.62041 5.32319,-3.30241 8.10401,-4.72287 1.5338,-0.78344 3.13841,-1.40919 4.7107,-2.10693 0.6165,-0.27371 1.21284,-0.59426 1.83687,-0.85003 0.89882,-0.36843 1.82414,-0.67265 2.75443,-0.95219 1.73818,-0.52229 3.54142,-0.85135 5.308,-1.25688 1.5382,-0.35312 3.05746,-0.78747 4.59128,-1.15649 1.96535,-0.47284 3.95411,-0.83309 5.90702,-1.35903 3.04213,-0.81922 6.06902,-1.7746 9.0631,-2.75267 1.68779,-0.55137 3.35419,-1.13109 5.06913,-1.59624 2.09617,-0.56851 4.20455,-1.02638 6.30694,-1.56332 3.48714,-0.89061 6.89193,-1.95823 10.2594,-3.22876 0.599,-0.22613 1.20796,-0.42557 1.79528,-0.68038 2.20819,-0.95802 4.27241,-2.19236 6.38832,-3.33094 1.86474,-1.00343 3.77661,-1.92911 5.62829,-2.95523 2.77444,-1.53754 5.45886,-3.23831 8.22344,-4.79213 2.514,-1.41294 5.19659,-2.52657 7.82352,-3.70486 1.74951,-0.78474 2.44201,-1.16821 4.31082,-1.97017 3.2326,-1.3872 6.567,-2.5859 9.90105,-3.70488 2.45573,-0.8242 4.95302,-1.45183 7.4634,-2.07228 2.37917,-0.58806 4.71695,-1.31922 7.1068,-1.86977 2.62196,-0.604 5.29849,-0.9332 7.90317,-1.63083 2.85189,-0.76381 5.64184,-1.74702 8.50215,-2.48087 1.95946,-0.50273 3.92781,-0.89001 5.90874,-1.29153 1.16299,-0.23584 2.31226,-0.53548 3.47289,-0.78254 1.89373,-0.40306 3.79998,-0.69861 5.70793,-1.01969 2.38151,-0.40079 4.7394,-0.92022 7.10679,-1.39192 2.00459,-0.39942 1.95717,-0.32429 3.75162,-0.78253 2.91441,-0.74432 5.69037,-1.87936 8.42255,-3.12663 2.05937,-0.94016 4.05576,-2.01801 6.14768,-2.88774 0.85057,-0.35364 1.7307,-0.63367 2.59512,-0.9522 1.57444,-0.58014 3.16382,-1.14424 4.79035,-1.56332 5.72085,-1.47391 -3.66827,1.09189 3.51274,-0.85004 1.1414,-0.30854 1.69437,-0.51141 2.83405,-0.84831 2.8252,-0.83516 5.68503,-1.59433 8.54201,-2.3112 1.80141,-0.45201 3.6304,-0.79604 5.42919,-1.25864 0.74812,-0.19229 1.48543,-0.4242 2.23505,-0.61114 1.15133,-0.28711 2.31682,-0.51323 3.47287,-0.78078 0.78502,-0.18158 1.57328,-0.35317 2.35625,-0.5436 0.61764,-0.15042 2.99237,-0.79305 3.63216,-0.91757 4.09599,-0.79701 8.27477,-0.66271 12.4148,-0.98681 2.28584,-0.1789 4.52333,-0.53475 6.78647,-0.88292 0.58372,-0.0897 2.54002,-0.36083 3.23402,-0.51075 2.42153,-0.52305 4.7096,-1.53116 7.02541,-2.37872 1.63991,-0.60021 3.09923,-1.11481 4.75054,-1.63083 1.84051,-0.57523 0.36366,-1.1e-4 2.55361,-0.85008 1.6909,-0.65623 3.32244,-1.58044 5.11065,-1.93723 1.67322,-0.33403 3.3804,-0.4546 5.06909,-0.67869 1.67342,-0.22211 3.34106,-0.50989 5.02928,-0.61109 1.43579,-0.0862 2.87837,0.0398 4.31254,-0.0346 2.13506,-0.11093 4.1996,-0.61395 6.30695,-0.91758 2.35268,-0.33898 4.74404,-0.50075 7.10503,-0.78253 0.72463,-0.0864 1.4355,-0.21441 2.15197,-0.32362 -0.65788,-0.35643 -1.35743,-0.64559 -2.11214,-1.00068 -1.03378,-0.48636 -1.99663,-1.13298 -3.07296,-1.52868 -0.9965,-0.36634 -2.07594,-0.49688 -3.11452,-0.68038 -1.36213,-0.24055 -2.70093,-0.48587 -4.07187,-0.68038 -1.40945,-0.20003 -2.82183,-0.37654 -4.23121,-0.57651 -1.64932,-0.23417 -3.32498,-0.62979 -4.98945,-0.74788 -0.87604,-0.0624 -1.75449,-0.071 -2.63325,-0.064 z" /></g></svg>
